<svg width="77" height="20" viewBox="0 0 77 20" fill="none" xmlns="http://www.w3.org/2000/svg">
<path fill-rule="evenodd" clip-rule="evenodd" d="M5.05147 0.0186681C4.55746 -0.157594 4.23943 0.960179 3.58478 1.44199C3.01693 1.85969 2.14753 2.94336 1.28252 3.34981C1.27528 3.35305 0.0348712 4.75276 0 4.85347C0.347664 4.82603 1.72251 5.97401 2.02882 6.65686C2.19517 7.02777 4.95762 9.8433 5.05557 9.80043C5.2848 9.7002 6.24147 8.11993 7.08848 7.72768C7.10411 7.72044 10.4911 5.00202 9.6821 4.60062C9.66943 4.59433 7.26179 2.4629 7.15594 2.11142C6.89307 1.23964 5.39285 0.140527 5.05147 0.0186681Z" fill="#1C1B17"/>
<path fill-rule="evenodd" clip-rule="evenodd" d="M15.1061 0.211112C14.6122 0.0348499 14.2942 1.15264 13.6394 1.63436C13.0716 2.05215 12.2023 3.13583 11.3373 3.54228C11.33 3.54551 10.0896 4.94523 10.0546 5.04593C10.4024 5.01849 11.7772 6.16648 12.0836 6.84932C12.2499 7.22023 15.0124 10.0357 15.1103 9.99287C15.3395 9.89264 16.2961 8.3124 17.1432 7.92014C17.1588 7.9129 20.5457 5.19437 19.7368 4.79306C19.7242 4.78668 17.3165 2.65534 17.2106 2.30377C16.9478 1.43199 15.4475 0.33297 15.1061 0.211112V0.211112Z" fill="#1C1B17"/>
<path fill-rule="evenodd" clip-rule="evenodd" d="M24.9612 0.0667635C25.4551 -0.109498 25.7732 1.00829 26.4279 1.49011C26.9958 1.9078 27.8651 2.99148 28.7301 3.39793C28.7373 3.40117 29.9777 4.80088 30.0127 4.90159C29.6649 4.87415 28.2901 6.02213 27.9838 6.70497C27.8174 7.07589 25.055 9.8914 24.957 9.84853C24.7278 9.74829 23.7712 8.16805 22.9241 7.77579C22.9086 7.76855 19.5216 5.05011 20.3305 4.64871C20.3432 4.64242 22.7508 2.51099 22.8568 2.15952C23.1195 1.28764 24.6198 0.188622 24.9612 0.0667635V0.0667635Z" fill="#1C1B17"/>
<path fill-rule="evenodd" clip-rule="evenodd" d="M15.0027 10.2178C15.4967 10.0415 15.8147 11.1593 16.4694 11.641C17.0373 12.0588 17.9067 13.1424 18.7717 13.5489C18.7788 13.5522 20.0192 14.9519 20.0542 15.0526C19.7065 15.0251 18.3317 16.1731 18.0253 16.8559C17.8589 17.2268 15.0966 20.0424 14.9985 19.9995C14.7694 19.8992 13.8127 18.319 12.9657 17.9268C12.9501 17.9195 9.56311 15.201 10.372 14.7997C10.3847 14.7933 12.7923 12.6619 12.8983 12.3104C13.161 11.4386 14.6614 10.3396 15.0027 10.2178V10.2178Z" fill="#1C1B17"/>
<path fill-rule="evenodd" clip-rule="evenodd" d="M40.8771 5.43638C42.6799 4.60623 51.0986 5.18083 50.1271 5.34538C48.0919 5.69029 48.7178 6.23567 45.4429 6.10657C44.4377 6.06698 45.2754 10.347 45.2754 10.9034C45.2754 11.9015 43.935 16.4528 43.935 19.0082C43.6566 18.9506 43.2025 13.4533 43.662 12.0548C44.1981 10.4235 42.9226 8.64647 43.5783 6.95161C43.8799 6.17213 42.6829 6.93374 41.3164 5.96061C41.0434 5.76622 38.7919 6.39666 40.8771 5.43638V5.43638Z" fill="#1C1B17"/>
<path fill-rule="evenodd" clip-rule="evenodd" d="M51.3685 5.78846C50.7267 6.73545 51.0905 10.8977 51.0433 12.4451C50.9758 14.6554 50.7947 16.8214 51.3976 18.9182C51.6009 19.6249 51.5102 16.7405 51.6505 15.9587C52.1539 13.1523 52.635 13.8051 52.4406 10.602C52.3436 9.00197 51.567 8.24037 51.6306 6.12364C51.6334 6.02896 51.3787 5.77325 51.3685 5.78846V5.78846Z" fill="#1C1B17"/>
<path fill-rule="evenodd" clip-rule="evenodd" d="M51.8343 1.18873C50.9851 0.808665 50.4117 2.33527 51.0332 3.26571C51.0418 3.27841 51.1415 4.53056 51.8052 3.55181C52.2303 2.92492 51.0647 2.65507 51.7878 1.32181L51.8343 1.18873Z" fill="#1C1B17"/>
<path fill-rule="evenodd" clip-rule="evenodd" d="M54.4817 4.30988C57.2822 5.88892 56.5878 7.83934 58.9115 10.4157C60.9332 12.6574 57.5745 14.6823 55.9885 15.9609C55.9556 15.9874 54.8554 18.3704 54.1752 18.849C53.9864 18.9816 54.1692 18.8842 53.8686 19.1291C53.8686 18.5631 53.8093 16.3278 53.8598 15.9609C54.4485 11.6809 54.4817 8.62766 54.4817 4.30988V4.30988ZM55.4715 7.63076C57.0169 8.50211 56.6337 9.57834 57.9159 11.0001C59.0316 12.2372 57.1782 13.3545 56.303 14.0601C56.2847 14.0747 55.6777 15.3897 55.3022 15.6536C55.1981 15.727 55.2988 15.6733 55.1331 15.8084C55.1331 15.496 55.1005 14.2625 55.1282 14.0601C55.4531 11.6982 55.4715 10.0134 55.4715 7.63076V7.63076Z" fill="#1C1B17"/>
<path fill-rule="evenodd" clip-rule="evenodd" d="M63.4872 4.18933C64.1637 4.38845 63.7929 6.08184 64.5341 7.5789C65.6847 9.90302 66.551 19.6625 66.4739 18.8472C66.3662 17.7095 65.3773 18.1356 65.1048 14.7995C64.9827 13.3063 64.6944 12.7121 63.0775 13.0416C61.9424 13.2729 62.8808 15.3836 61.3127 16.6129C61.0808 16.7945 60.466 18.4833 59.9435 18.686C59.9435 16.3092 61.2935 14.4545 61.4069 13.5317C61.922 9.34599 63.2511 8.31997 63.4872 4.18933V4.18933ZM63.5275 7.85393C62.5263 9.59458 63.084 9.71113 62.4908 11.2364C62.4021 11.4646 62.405 11.8478 62.5576 11.8875C62.7796 11.9456 64.6904 12.362 64.6446 12.1258C64.468 11.216 63.8934 9.54939 63.853 8.61895C63.8527 8.61171 63.6242 7.68554 63.5275 7.85393V7.85393Z" fill="#1C1B17"/>
<path fill-rule="evenodd" clip-rule="evenodd" d="M68.0533 4.14593C68.4732 3.76557 68.5553 5.58244 69.4406 6.49457C69.4515 6.50594 69.1765 10.0278 69.1765 10.4389C69.1765 11.5283 69.0338 12.7106 69.4231 13.702C69.5899 14.127 68.1722 16.7506 68.9679 16.5612C71.0796 16.0588 71.3431 16.7792 73.2099 16.7056C74.294 16.6629 74.0542 16.3675 74.533 16.761C74.6974 16.8963 76.7621 16.7703 76.9368 16.5013C76.8568 16.5291 76.2071 17.3801 75.9246 17.4291C75.3311 17.5321 73.6722 17.0309 70.7168 17.6333C68.327 18.1206 67.1143 18.6752 67.7732 16.4751C68.9456 12.5608 68.7168 8.12679 68.0533 4.14593Z" fill="#1C1B17"/>
</svg>
