<svg width="82" height="20" viewBox="0 0 82 20" fill="none" xmlns="http://www.w3.org/2000/svg">
<path fill-rule="evenodd" clip-rule="evenodd" d="M22.2203 4.92317C22.3709 6.0316 22.3308 7.75881 21.9047 8.7413C21.3435 10.0356 21.3482 12.0715 20.1014 13.4445C19.4977 14.1095 19.905 13.907 18.9542 14.7811L18.8826 14.8606C18.8757 14.9484 17.9686 16.0979 17.8523 16.2766C17.6106 16.6483 15.6896 18.0237 15.2666 18.249C13.7025 19.0821 12.4186 19.1669 10.8249 19.644C9.38095 20.0764 9.29648 19.9937 7.87289 19.9937C7.14996 19.9937 6.66787 19.9159 6.01401 19.8904C4.69632 19.839 4.42205 19.4867 3.46011 19.3493C2.23281 19.1739 2.00465 18.7892 1.00735 18.4578C0.587652 18.3183 -0.393958 17.5957 0.170768 17.6652C1.22678 17.7951 1.59959 17.7308 2.61336 17.6652C3.37611 17.6159 3.7338 17.4531 4.40219 17.2671C5.83866 16.8673 6.16476 16.5516 7.33103 16.0657C7.73057 15.8992 7.40234 15.6177 7.20034 15.7458C7.04106 15.8856 6.43632 15.4759 6.12523 15.3852C5.1598 15.1036 4.90607 14.8293 4.12762 14.3232C3.78921 14.1031 2.69929 12.3502 2.69929 12.1782C2.69929 12.1349 4.43542 12.37 4.97941 12.0879C5.17385 11.987 3.73012 11.62 3.71084 11.624C3.69824 11.6115 3.64941 11.5579 3.63711 11.5525C2.5438 11.0788 1.14094 9.70547 1.2075 8.38089C1.22639 8.00393 0.667095 6.71171 1.19084 7.09566C2.04563 7.72219 2.05677 7.6288 3.10397 7.6288C3.08323 7.60448 3.05669 7.60022 3.04467 7.58695C2.56472 7.05342 2.61888 7.49394 1.91765 6.66792C1.42558 6.08837 1.19471 5.29743 1.02391 4.55618C0.872485 3.89894 0.779768 2.94416 1.07884 2.32305C1.3753 1.70746 1.15431 0.814793 1.63737 0.978524L1.68358 1.00817C1.85787 1.51167 2.34209 1.58937 2.5498 1.94153C2.99275 2.69266 3.49721 2.86056 3.83068 3.25642C3.93124 3.37577 6.59763 5.03294 6.87375 5.17604C7.78802 5.64989 10.9752 6.34976 12.1058 6.1622C12.1058 5.79337 12.187 5.39518 12.1817 5.03004C12.1619 3.6669 12.9064 1.39919 14.2718 0.82671C16.3694 -0.052688 16.2997 -0.186288 18.4548 0.21771C19.709 0.452843 20.0763 1.17607 20.9307 1.58539C21.2892 1.58539 22.2699 1.26074 22.5721 1.08616C23.2013 0.722659 23.1031 1.03559 23.9398 0.371656C24.1781 1.19389 22.5737 2.70312 21.9465 3.07079C22.081 3.14093 24.3205 2.74197 24.7005 2.47041C24.7074 2.46547 24.2868 3.19858 24.0684 3.47537C23.7963 3.81988 22.2289 4.90021 22.2203 4.92317V4.92317Z" fill="#1C1B17"/>
<path fill-rule="evenodd" clip-rule="evenodd" d="M32.8595 4.40641C34.626 3.63616 42.8758 4.16941 41.9238 4.32208C39.9294 4.64195 40.5427 5.14811 37.3336 5.02841C36.3485 4.99158 37.1694 8.96307 37.1694 9.47937C37.1694 10.4055 35.8558 14.6288 35.8558 17C35.583 16.9465 35.1381 11.8455 35.5885 10.5477C36.1137 9.03406 34.8637 7.38507 35.5063 5.8124C35.8019 5.08913 34.6289 5.79599 33.2899 4.89283C33.0224 4.71254 30.8162 5.29743 32.8595 4.40641V4.40641Z" fill="#1C1B17"/>
<path fill-rule="evenodd" clip-rule="evenodd" d="M42.159 4.61421C42.0818 6.77613 42.1635 7.28377 42.62 9.36449C42.914 10.7046 41.7631 14.5591 42.5652 13.1926C44.2032 10.4021 44.432 8.11069 44.432 8.1321C44.432 8.67857 45.4692 12.7838 45.4692 10.3412C45.4692 8.36107 46.2667 6.26472 46.1952 4.26C46.1832 3.92175 46.3531 3.40823 46.61 3.10748C46.61 5.23312 46.7372 7.8866 46.6189 9.92671C46.4755 12.4029 45.4808 18.5715 45.4692 18.5381C45.0895 18.4896 44.4903 13.7068 44.6484 12.6678C45.0811 9.82398 43.607 13.8985 43.6024 13.9185C42.8585 17.0923 42.9133 15.5688 42.0985 17.5318C42.0985 15.1851 41.6836 12.9842 41.6836 10.2602C41.6836 7.9302 41.9775 6.50057 42.159 4.61421V4.61421Z" fill="#1C1B17"/>
<path fill-rule="evenodd" clip-rule="evenodd" d="M49.0807 5.51198C48.4593 6.42908 48.8116 10.4596 48.7658 11.9582C48.7004 14.0985 48.525 16.196 49.1089 18.2264C49.3057 18.9108 49.218 16.1177 49.3539 15.3605C49.8414 12.6428 50.3072 13.2752 50.119 10.1733C50.025 8.62384 49.2731 7.88634 49.3344 5.83657C49.3372 5.74483 49.0907 5.49733 49.0807 5.51198V5.51198Z" fill="#1C1B17"/>
<path fill-rule="evenodd" clip-rule="evenodd" d="M49.5318 1.05768C48.7095 0.689703 48.1542 2.16792 48.7561 3.06894C48.7644 3.08126 48.8608 4.2939 49.5036 3.34606C49.9153 2.73891 48.7865 2.47766 49.4867 1.18658L49.5318 1.05768V1.05768Z" fill="#1C1B17"/>
<path fill-rule="evenodd" clip-rule="evenodd" d="M50.7735 5.37524C52.3634 4.66411 59.7882 5.15635 58.9314 5.29739C57.1365 5.59266 57.6885 6.05988 54.8002 5.94927C53.9138 5.91539 54.6525 9.5814 54.6525 10.058C54.6525 10.9127 53.4702 14.8112 53.4702 17C53.2247 16.9506 52.8243 12.242 53.2296 11.0441C53.7025 9.64681 52.5775 8.12477 53.1558 6.67308C53.4218 6.00544 52.366 6.65781 51.1609 5.82424C50.9203 5.65782 48.9346 6.19772 50.7735 5.37524V5.37524Z" fill="#1C1B17"/>
<path fill-rule="evenodd" clip-rule="evenodd" d="M58.6876 5.40652C60.1008 4.63613 66.7006 5.16938 65.939 5.32205C64.3436 5.64205 64.8341 6.14821 62.2669 6.02838C61.4789 5.99168 62.1356 9.96318 62.1356 10.4795C62.1356 11.4055 61.0847 15.6288 61.0847 18C60.8665 17.9465 60.5105 12.8455 60.8709 11.5477C61.291 10.034 60.291 8.38518 60.8051 6.81238C61.0415 6.0891 60.1032 6.79596 59.032 5.89293C58.818 5.71265 57.0529 6.29754 58.6876 5.40652V5.40652Z" fill="#1C1B17"/>
<path fill-rule="evenodd" clip-rule="evenodd" d="M67.4751 5.05137C65.3522 4.36289 65.6671 11.6446 67.4873 12.85C68.62 13.6003 66.0327 19.0165 72.3062 16.1894C73.6781 15.5712 78.5773 16.3277 70.3169 15.5419C68.2215 15.3427 69.5993 14.4121 68.0801 11.6083C67.6628 10.8383 76.0866 11.1864 71.0629 10.7557C70.3294 10.6928 70.3503 10.0217 68.0801 10.0961C67.1032 10.128 66.5739 6.5644 68.4698 6.38407C68.5403 6.37737 76.4478 4.62997 72.2006 5.11572C69.6435 5.40814 69.4996 4.83122 67.4751 5.05137V5.05137Z" fill="#1C1B17"/>
<path fill-rule="evenodd" clip-rule="evenodd" d="M76.0521 4C79.0505 4.75247 78.2955 6.23127 80.2518 6.74657C80.8312 6.89909 83.2517 8.90805 80.2774 10.0574C76.3619 11.5704 77.6381 13.5733 76.9073 14.8803C76.5305 15.5542 75.831 18.2351 76.0521 19C76.0521 17.6904 75.9409 14.7211 76.0435 13.5765C76.4057 9.53912 75.9797 7.49789 76.0521 4ZM77.05 5.9014C77.0403 5.92701 76.2875 12.7625 78.2902 10.0483C79.6018 8.27071 81.1282 10.477 78.5125 7.40748C78.164 6.99846 78.049 6.26931 77.2324 5.98899L77.05 5.9014ZM77.6088 12.0312C77.2784 13.0362 78.1414 13.0619 78.773 14.1804C79.6752 15.7781 80.4594 17.413 81.895 18.5279C82.3789 18.9036 81.0462 16.926 80.8282 16.2908C80.0456 14.0111 80.7475 14.182 79.1861 12.0421C78.4062 10.9732 79.1769 12.7098 78.312 11.1804C78.2734 11.1122 77.6688 11.8488 77.6088 12.0312V12.0312Z" fill="#1C1B17"/>
</svg>
