<svg width="120" height="20" viewBox="0 0 120 20" fill="none" xmlns="http://www.w3.org/2000/svg">
<ellipse cx="13.9667" cy="10.3052" rx="6.91291" ry="5.43157" fill="white"/>
<path fill-rule="evenodd" clip-rule="evenodd" d="M9.75417 19.9811C10.6519 20.0435 23.3464 19.9532 24.2529 19.685C25.6072 19.2842 27.7048 19.1068 27.9804 17.3158C28.0767 16.6902 28.6124 15.4564 28.582 14.319C28.5794 14.2214 28.6627 12.2773 28.6627 11.2806C28.6627 9.17472 28.7186 3.63847 27.4327 2.21323C26.5557 1.24117 26.9132 1.21747 25.199 0.602522C24.1052 0.210264 14.5711 -0.243425 13.8825 0.153376C11.6595 0.153376 5.78992 -0.220703 4.08747 0.628696C3.28715 1.02797 2.00609 0.703844 1.1398 2.26251C0.526629 3.36581 0.152149 4.80498 0.152149 6.09009C0.152149 8.11675 -0.104815 9.60905 0.0491453 11.5729C0.146123 12.8101 0.184835 13.6135 0.430638 14.8082C0.665084 15.9474 0.272925 16.1719 1.10751 17.7743C2.2513 19.9701 3.55567 19.6111 5.65858 19.7791C7.27639 19.9084 7.89717 19.852 9.75417 19.9811ZM11.5342 6.31219C12.762 7.05306 13.0429 6.83826 14.305 7.94837C14.9253 8.494 17.5184 9.82928 18.3657 10.1604C18.7156 10.2972 15.8242 11.5828 15.4309 12.0495C15.4071 12.0778 13.6579 13.152 13.3887 13.3974C13.3119 13.4675 11.5524 14.5664 11.5312 14.4313C11.2912 12.9049 11.7204 10.6854 11.4048 8.89544C11.3845 8.78049 11.5235 6.30567 11.5342 6.31219V6.31219ZM12.0024 7.25679C12.9451 7.82553 13.1607 7.6606 14.1296 8.51286C14.6057 8.93169 16.5962 9.95667 17.2466 10.2109C17.5152 10.3157 15.2957 11.3027 14.9938 11.661C14.9755 11.6827 13.6327 12.5072 13.4261 12.6957C13.3672 12.7495 12.0166 13.593 12.0003 13.4894C11.816 12.3176 12.1454 10.6139 11.9032 9.2398C11.8876 9.15161 11.9943 7.25185 12.0024 7.25679V7.25679Z" fill="#1C1B17"/>
<path fill-rule="evenodd" clip-rule="evenodd" d="M38 3.70975C38.6184 4.63416 40.7867 8.23415 40.7867 9.26324C40.7867 11.4537 40.6078 12.4716 41.1698 14.5595C41.2148 14.7273 41.1473 19.9996 41.8966 17.0566C42.099 16.2617 42.0144 12.32 41.8228 11.5111C40.9924 11.4251 42.6039 8.98235 42.6513 8.30101C42.7201 7.31046 44.0461 6.30937 44.0913 4.39622C44.0948 4.24578 45.2978 3.46433 43.8698 3.66247C42.6137 3.83675 42.5437 8.24624 41.5943 8.27328C41.5727 8.27397 39.9238 5.53111 39.9051 5.43932C39.7601 4.72789 38.4939 3.8179 38 3.70975Z" fill="#1C1B17"/>
<path fill-rule="evenodd" clip-rule="evenodd" d="M46.6021 3.75012C45.8165 3.27578 44.2631 9.17856 43.3852 9.81484C43.1586 9.97914 44.4416 14.1327 44.5829 14.9981C45.1593 18.5292 45.2527 17.8996 46.4199 15.3535C48.9392 9.85698 48.9329 10.9673 47.0268 5.19017C46.8895 4.7742 47.0772 3.96892 46.4613 3.89779L46.6021 3.75012V3.75012ZM46.1175 6.01169C46.0064 8.95503 43.532 10.3488 44.6429 11.7672C45.14 12.4021 44.5478 17.7173 46.4613 12.6626C48.0566 8.44894 45.9953 9.24967 46.1175 6.01169Z" fill="#1C1B17"/>
<path fill-rule="evenodd" clip-rule="evenodd" d="M49.3484 4.15406C48.9277 5.47404 48.703 12.854 49.2017 14.0173C49.8297 15.4825 50.1677 17.3034 52.1546 16.9758C54.2048 16.6377 54.4147 8.01846 54.3562 5.99092C54.3512 5.81955 54.9284 3.29731 54.0331 4.10095C53.9829 4.14588 52.9714 9.61882 52.3092 10.858C51.7628 11.8805 52.4752 13.9273 51.2869 13.9273C51.2869 10.5147 50.1175 12.1562 50.2369 9.5241C50.2413 9.42524 49.6088 6.34659 49.6715 4.88088C49.6803 4.67456 49.3772 4.06338 49.3484 4.15406V4.15406Z" fill="#1C1B17"/>
<path fill-rule="evenodd" clip-rule="evenodd" d="M55.5274 4.31557C57.2654 3.51512 65.3822 4.06918 64.4456 4.2278C62.4834 4.56029 63.0868 5.08623 59.9293 4.96172C58.9603 4.92359 59.7678 9.05005 59.7678 9.5865C59.7678 10.5486 58.4754 14.9367 58.4754 17.4005C58.207 17.3449 57.7692 12.0448 58.2124 10.6964C58.7293 9.12369 57.4994 7.41049 58.1317 5.77631C58.4225 5.02481 57.2683 5.75925 55.9508 4.82098C55.6878 4.63366 53.517 5.24136 55.5274 4.31557V4.31557Z" fill="#1C1B17"/>
<path fill-rule="evenodd" clip-rule="evenodd" d="M65.1795 4.15406C64.7588 5.47404 64.8528 12.4193 65.5834 13.4957C66.4785 14.8147 66.0859 18.6363 67.9857 16.9759C69.5503 15.6085 70.2458 8.01846 70.1873 5.99092C70.1824 5.81955 70.7595 3.29731 69.8642 4.10095C69.8141 4.14588 68.8027 9.61882 68.1403 10.858C67.594 11.8805 68.3063 13.9273 67.118 13.9273C67.118 10.5147 65.9486 12.1562 66.068 9.5241C66.0726 9.42524 65.4399 6.34659 65.5026 4.88101C65.5114 4.67456 65.1507 4.24474 65.1795 4.15406V4.15406Z" fill="#1C1B17"/>
<path fill-rule="evenodd" clip-rule="evenodd" d="M72.2469 4.11356C71.9911 4.44369 72.0736 7.46595 71.5004 8.91252C71.4832 8.95592 71.3181 16.4068 71.3181 17.3198C71.4953 17.3317 73.4219 16.3672 75.1743 16.4313C75.2681 16.4348 79.5272 15.9794 78.1837 14.869C77.5359 14.3335 78.2042 13.4981 76.4067 12.9374C75.7762 12.7406 76.2185 11.1315 74.7912 11.0264C74.7388 11.0227 73.1386 9.9258 74.4751 9.65335C74.4952 9.64933 77.8111 8.30979 77.2813 8.0311C75.8282 7.26656 75.6293 7.32645 75.1004 5.29864C74.5127 5.16304 72.8029 4.19203 72.2469 4.11356V4.11356ZM73.2163 5.42622C72.6313 5.10246 72.9204 6.44975 72.7211 7.11251C72.6597 7.31703 72.189 9.34846 72.6647 9.23227C73.4991 9.02845 74.6329 8.2413 75.4777 8.31382C75.4837 8.30162 74.6742 7.89424 74.6666 7.70789C74.6332 6.89135 73.6167 6.05749 73.62 5.97138C73.64 5.46446 73.4179 5.53783 73.2163 5.42622V5.42622ZM72.6508 10.959C71.7191 11.6271 72.3612 13.1912 72.3278 14.24C72.3229 14.3907 72.4258 16.1545 72.4963 16.1519C73.1795 16.1269 73.8617 15.0646 76.7701 15.1792C76.9168 15.1851 77.0204 14.8212 76.7194 14.6208C75.1278 13.5603 76.3802 14.3179 75.3463 13.0792C75.091 12.7735 74.0239 11.6526 74.0239 11.3865C74.0239 10.5655 73.4405 11.3627 72.8423 10.8649C72.7665 10.8018 72.6954 10.9272 72.6508 10.959Z" fill="#1C1B17"/>
<path fill-rule="evenodd" clip-rule="evenodd" d="M79.7588 5.36544C77.3451 4.64887 77.7032 12.2273 79.7725 13.4818C81.0603 14.2626 78.1189 19.8994 85.2511 16.9572C86.811 16.3138 92.3809 17.1011 82.9896 16.2835C80.6074 16.076 82.1737 15.1074 80.4465 12.1894C79.9722 11.3881 89.5493 11.7503 83.8377 11.3022C83.0038 11.2367 83.0276 10.5382 80.4465 10.6156C79.3359 10.6488 78.7341 6.94012 80.8895 6.75238C80.9698 6.74545 89.9598 4.92688 85.1312 5.43241C82.2239 5.73675 82.0605 5.13624 79.7588 5.36544V5.36544Z" fill="#1C1B17"/>
<path fill-rule="evenodd" clip-rule="evenodd" d="M90.4623 15.5073C90.5105 15.9248 91.6467 16.7402 92.0032 17.2692C92.2784 17.6779 92.8489 18.3419 93.1293 18.6696C93.3052 18.1987 93.2295 17.8988 93.6484 17.1291C93.658 17.1117 93.7865 15.9093 93.9145 15.5977C93.4065 13.9043 93.8802 14.9625 93.3872 16.144C93.2282 16.5252 92.9416 17.6219 92.7749 17.2378C92.6214 16.8837 91.2645 15.761 91.0014 15.616C90.8002 15.5051 91.2919 14.7027 91.4591 14.053C91.6555 13.2894 92.5457 11.8577 92.8441 11.167C92.9794 11.2499 93.8733 15.4932 93.3883 12.3991C93.3399 12.0906 92.7926 9.40184 92.6325 10.3588C92.6163 10.4563 92.5625 10.3799 92.6547 10.5137C92.569 10.6349 91.4897 13.2765 91.2028 13.7947C91.0724 14.0302 90.5008 15.2275 90.4623 15.5073Z" fill="#1C1B17"/>
<path fill-rule="evenodd" clip-rule="evenodd" d="M96.984 16.9071C96.9043 17.1783 97.0314 18.7392 97.2107 18.9671C97.2107 17.3072 98.1486 15.7401 97.7874 13.807C97.5098 12.3213 97.9967 11.4597 97.2107 10.0088C97.6375 12.2396 97.1975 12.2814 97.2486 13.8642C97.1143 13.8298 97.0334 13.8217 96.9019 13.7821C96.3828 14.1715 96.2141 13.9255 95.7074 14.0252C95.3202 14.1013 95.4634 12.3622 95.3522 12.0057C94.9581 10.7424 95.7561 11.3448 94.4892 9.8577C95.1423 12.5957 94.766 14.8991 94.8295 17.6722C94.8338 17.8589 94.7703 17.9602 94.6782 18.0977C94.5804 18.2698 94.6216 18.7967 94.6356 18.5324C94.6359 18.5257 95.0754 17.7844 95.1366 17.5449C95.3873 16.5649 95.1421 16.9167 95.1901 15.9639C95.2166 15.4385 95.283 15.2078 95.283 14.6582C95.3785 14.4143 95.8702 14.5263 96.2783 14.3811C96.4137 14.3329 97.1102 14.2924 97.1383 14.4362C97.2913 15.215 96.965 15.1224 96.965 15.94C96.965 16.1434 96.9184 16.7597 96.984 16.9071V16.9071Z" fill="#1C1B17"/>
<path fill-rule="evenodd" clip-rule="evenodd" d="M100.352 10.3226C100.751 10.4399 100.532 11.4392 100.97 12.3225C101.648 13.694 102.16 19.4527 102.114 18.9716C102.051 18.3002 101.467 18.5517 101.306 16.5833C101.234 15.7021 101.064 15.3515 100.11 15.5458C99.4404 15.6824 99.9941 16.9278 99.0687 17.6531C98.9319 17.7604 98.5691 18.7569 98.2609 18.8766C98.2609 17.4739 99.0575 16.3796 99.1244 15.8351C99.4282 13.3654 100.213 12.7599 100.352 10.3226V10.3226ZM100.376 12.4849C99.7849 13.5121 100.114 13.5807 99.7639 14.4807C99.7115 14.6155 99.7133 14.8415 99.8033 14.8651C99.9343 14.8992 101.062 15.1448 101.035 15.0055C100.931 14.4688 100.592 13.4853 100.568 12.9362C100.568 12.9319 100.433 12.3855 100.376 12.4849V12.4849Z" fill="#1C1B17"/>
<path fill-rule="evenodd" clip-rule="evenodd" d="M107.324 9.69699C107.324 10.8383 107.639 12.0932 107.209 13.1375C106.572 14.6814 107.222 16.5436 106.547 18.1001C106.005 19.3502 107.102 19.2929 105.379 17.8789C104.328 17.0169 103.949 9.6149 103.949 14.5158C103.949 14.98 103.318 18.2554 103.055 18.4745L102.891 18.4309C102.891 17.1348 102.909 15.7882 103.239 14.5497C103.471 13.6783 103.479 10.6404 103.552 10.3586C103.883 11.4557 105.138 13.2676 105.267 14.1357C105.388 14.946 106.133 15.4029 106.133 17.5707C106.133 15.3742 106.415 14.0332 106.976 11.99C106.983 11.9654 107.324 9.72431 107.324 9.69699V9.69699Z" fill="#1C1B17"/>
<path fill-rule="evenodd" clip-rule="evenodd" d="M108.711 10.4244C107.279 9.99925 107.492 14.4947 108.719 15.2388C109.483 15.702 107.738 19.0457 111.969 17.3005C112.894 16.9188 116.198 17.3858 110.627 16.9007C109.214 16.7778 110.143 16.2032 109.119 14.4722C108.837 13.9969 114.518 14.2118 111.13 13.9459C110.636 13.9071 110.65 13.4928 109.119 13.5387C108.46 13.5584 108.103 11.3585 109.381 11.2471C109.429 11.243 114.762 10.1641 111.898 10.464C110.173 10.6447 110.076 10.2885 108.711 10.4244V10.4244Z" fill="#1C1B17"/>
<path fill-rule="evenodd" clip-rule="evenodd" d="M114.407 10.0507C114.672 9.82537 114.723 10.9016 115.281 11.4418C115.287 11.4485 115.114 13.5345 115.114 13.778C115.114 14.4231 115.024 15.1235 115.27 15.7107C115.375 15.9625 114.482 17.5162 114.983 17.404C116.313 17.1066 116.478 17.5333 117.654 17.4896C118.336 17.4644 118.185 17.2894 118.487 17.5224C118.59 17.6026 119.89 17.528 120 17.3687C119.95 17.385 119.541 17.8891 119.363 17.9182C118.989 17.9792 117.945 17.6823 116.084 18.0391C114.579 18.3276 113.816 18.6562 114.231 17.3532C114.969 15.0347 114.825 12.4085 114.407 10.0507V10.0507Z" fill="#1C1B17"/>
</svg>
