<svg width="103" height="20" viewBox="0 0 103 20" fill="none" xmlns="http://www.w3.org/2000/svg">
<ellipse cx="10.357" cy="9.95044" rx="7.73318" ry="6.91916" fill="white"/>
<path fill-rule="evenodd" clip-rule="evenodd" d="M9.72365 2.36662e-05C11.665 -0.000790352 12.4515 0.0148366 14.2509 0.78734C15.5729 1.35496 15.3914 1.4633 16.5473 2.31541C17.0902 2.71559 19.3252 5.22928 19.2661 5.94716C19.2644 5.968 20.0977 7.91839 20.0649 9.01332C20.0531 9.41122 20.0885 10.3434 20.198 10.6961C20.2087 10.7645 20.0307 11.6632 20.0166 11.8134C19.8991 13.0678 19.4952 13.3516 19.3217 14.0427C19.0587 15.0893 18.2732 15.757 17.7049 16.4697C17.1451 17.1717 15.9274 17.9613 15.8814 18.0193C15.316 18.7322 14.3268 19.0599 13.5849 19.4687C12.0112 20.3361 9.29531 19.9592 7.59711 19.6132C6.17347 19.3233 5.0515 18.5386 3.82079 17.753C3.72425 17.6956 3.74965 17.7324 3.6991 17.6642C2.6701 16.2764 2.46594 17.219 1.30621 15.0012C1.0874 14.5827 0.572208 13.3674 0.380588 13.037C-0.216983 12.0069 0.0747584 10.894 0.0483028 10.0634C0.00117115 8.58352 0.480386 7.88981 0.495934 7.40808C0.53403 6.2297 1.46917 5.30799 1.58647 4.95943C1.86796 4.1227 4.95765 0.942741 5.86617 0.928251C6.8119 0.913111 7.97172 2.36662e-05 9.72365 2.36662e-05V2.36662e-05ZM9.9011 4.7245C10.9252 4.72402 11.3401 4.73232 12.2894 5.13982C12.9868 5.4393 12.8912 5.49644 13.5009 5.94594C13.7873 6.15709 14.9664 7.48321 14.9352 7.86189C14.9343 7.87288 15.374 8.90189 15.3567 9.47952C15.3504 9.68937 15.3691 10.1812 15.4268 10.3673C15.4325 10.4033 15.3386 10.8774 15.3312 10.9566C15.2692 11.6184 15.0561 11.7682 14.9645 12.1327C14.8258 12.6849 14.4114 13.0371 14.1116 13.4131C13.8163 13.7835 13.1739 14.2 13.1496 14.2306C12.8514 14.6067 12.3295 14.7795 11.9381 14.9952C11.1079 15.4529 9.67513 15.254 8.77922 15.0715C8.02821 14.9185 7.43625 14.5046 6.78699 14.0901C6.73604 14.0599 6.74947 14.0792 6.72285 14.0433C6.1799 13.3111 6.0722 13.8085 5.46047 12.6385C5.34496 12.4176 5.07316 11.7765 4.97206 11.6022C4.65687 11.0588 4.8108 10.4716 4.7968 10.0335C4.77197 9.25273 5.02473 8.88675 5.03295 8.63261C5.05305 8.01095 5.54643 7.52473 5.6083 7.34084C5.75677 6.8994 7.38676 5.22179 7.86606 5.21422C8.36497 5.20624 8.97687 4.7245 9.9011 4.7245V4.7245ZM8.3259 7.30079C9.11419 7.77651 9.29466 7.63861 10.105 8.35136C10.5032 8.70172 12.1681 9.55904 12.7122 9.77167C12.9368 9.85942 11.0804 10.6849 10.8278 10.9846C10.8125 11.0027 9.68946 11.6924 9.51664 11.85C9.46731 11.895 8.33762 12.6005 8.32394 12.5139C8.16985 11.5338 8.44548 10.1087 8.24287 8.95944C8.22984 8.8856 8.31906 7.29664 8.3259 7.30079V7.30079ZM8.6266 7.90732C9.23174 8.27248 9.3702 8.16658 9.99227 8.71377C10.2979 8.98272 11.576 9.64085 11.9936 9.80398C12.166 9.87138 10.741 10.5051 10.5471 10.7351C10.5354 10.749 9.67326 11.2785 9.54066 11.3995C9.50281 11.434 8.63563 11.9755 8.62513 11.909C8.50685 11.1567 8.71842 10.0628 8.56286 9.18052C8.55285 9.12387 8.6213 7.90414 8.6266 7.90732Z" fill="#1C1B17"/>
<path fill-rule="evenodd" clip-rule="evenodd" d="M99.4828 15.3828C99.5319 15.8081 100.69 16.639 101.053 17.1778C101.333 17.5943 101.914 18.2708 102.2 18.6046C102.379 18.1248 102.302 17.8193 102.729 17.0353C102.739 17.0173 102.869 15.7923 103 15.475C102.482 13.7497 102.965 14.8278 102.463 16.0315C102.301 16.4198 102.009 17.5372 101.839 17.1459C101.682 16.7852 100.3 15.6413 100.032 15.4935C99.8271 15.3805 100.328 14.5631 100.498 13.9011C100.698 13.1232 101.605 11.6645 101.909 10.961C102.047 11.0453 102.958 15.3684 102.464 12.2161C102.414 11.9018 101.857 9.16259 101.694 10.1374C101.677 10.2368 101.622 10.1589 101.716 10.2952C101.629 10.4187 100.529 13.11 100.237 13.6379C100.104 13.8781 99.522 15.0977 99.4828 15.3828V15.3828Z" fill="#1C1B17"/>
<path fill-rule="evenodd" clip-rule="evenodd" d="M30 3.71572C30.6392 4.67136 32.8808 8.39277 32.8808 9.45661C32.8808 11.721 32.6958 12.7732 33.2767 14.9316C33.3233 15.105 33.2536 20.5551 34.0281 17.5128C34.2373 16.6912 34.15 12.6165 33.9518 11.7802C33.0935 11.6914 34.7593 9.16618 34.8083 8.46185C34.8795 7.43798 36.2501 6.40309 36.2969 4.42542C36.3006 4.26989 37.5441 3.46201 36.0679 3.66684C34.7694 3.84695 34.697 8.4052 33.7156 8.43317C33.6932 8.43387 31.9887 5.5986 31.9693 5.50368C31.8195 4.76812 30.5105 3.82746 30 3.71572Z" fill="#1C1B17"/>
<path fill-rule="evenodd" clip-rule="evenodd" d="M38.8924 3.75751C38.0802 3.26705 36.4746 9.36886 35.5668 10.0267C35.3326 10.1965 36.6589 14.4902 36.805 15.3849C37.4008 19.0351 37.4975 18.3842 38.704 15.7522C41.3084 10.0704 41.3018 11.2183 39.3313 5.24599C39.1895 4.81613 39.3836 3.98353 38.7469 3.91007L38.8924 3.75751V3.75751ZM38.3914 6.09526C38.2767 9.13805 35.7187 10.5788 36.867 12.0449C37.3809 12.7012 36.7688 18.1958 38.7469 12.9706C40.3959 8.61481 38.2651 9.44247 38.3914 6.09526V6.09526Z" fill="#1C1B17"/>
<path fill-rule="evenodd" clip-rule="evenodd" d="M41.7313 4.17501C41.2964 5.53946 41.0641 13.1685 41.5797 14.371C42.2288 15.8856 42.5783 17.7681 44.6322 17.4293C46.7514 17.0799 46.9685 8.1699 46.9081 6.07385C46.903 5.89671 47.4996 3.2893 46.574 4.12006C46.5223 4.16654 45.4767 9.82422 44.792 11.1052C44.2272 12.1621 44.9636 14.2779 43.7352 14.2779C43.7352 10.7502 42.5263 12.4472 42.6497 9.72619C42.6544 9.62406 42.0005 6.44156 42.0653 4.92639C42.0744 4.71308 41.7612 4.08121 41.7313 4.17501V4.17501Z" fill="#1C1B17"/>
<path fill-rule="evenodd" clip-rule="evenodd" d="M48.1187 4.34199C49.9154 3.51462 58.3061 4.08729 57.3379 4.2513C55.3095 4.59499 55.9332 5.13857 52.6693 5.00988C51.6675 4.97047 52.5023 9.23615 52.5023 9.79061C52.5023 10.7854 51.1664 15.3214 51.1664 17.8684C50.8888 17.8109 50.4364 12.3321 50.8944 10.9382C51.4286 9.3123 50.1574 7.54115 50.8109 5.85208C51.1115 5.07514 49.9185 5.83427 48.5565 4.86437C48.2845 4.6707 46.0406 5.29904 48.1187 4.34199V4.34199Z" fill="#1C1B17"/>
<path fill-rule="evenodd" clip-rule="evenodd" d="M58.0966 4.17501C57.6616 5.5396 57.7588 12.7191 58.514 13.8318C59.4394 15.1954 59.0334 19.146 60.9974 17.4293C62.6147 16.0159 63.3337 8.16976 63.2733 6.07385C63.2682 5.89671 63.8649 3.2893 62.9393 4.12006C62.8875 4.16654 61.8419 9.82422 61.1573 11.1052C60.5924 12.1621 61.3288 14.2779 60.1005 14.2779C60.1005 10.7502 58.8916 12.4472 59.0151 9.72633C59.0196 9.62406 58.3657 6.44156 58.4305 4.92639C58.4397 4.71308 58.0666 4.26881 58.0966 4.17501V4.17501Z" fill="#1C1B17"/>
<path fill-rule="evenodd" clip-rule="evenodd" d="M65.4026 4.13318C65.138 4.47433 65.2233 7.59863 64.6307 9.09403C64.613 9.13895 64.4423 16.8411 64.4423 17.7849C64.6255 17.7973 66.6171 16.8002 68.4287 16.8664C68.5256 16.8699 72.9284 16.3993 71.5395 15.2514C70.8698 14.6979 71.5607 13.8342 69.7026 13.2545C69.0508 13.0512 69.5081 11.388 68.0326 11.2792C67.9785 11.2752 66.3242 10.1415 67.7058 9.85981C67.7266 9.85557 71.1545 8.47091 70.6067 8.18274C69.1046 7.39252 68.8988 7.4544 68.3523 5.35821C67.7447 5.21794 65.9772 4.21426 65.4026 4.13318V4.13318ZM66.4044 5.49C65.7997 5.15535 66.0987 6.54819 65.8927 7.23331C65.8292 7.44464 65.3425 9.54451 65.8343 9.42443C66.6969 9.21381 67.869 8.40014 68.7423 8.47501C68.7484 8.46244 67.9117 8.04134 67.9039 7.8488C67.8691 7.00462 66.8184 6.14263 66.822 6.05364C66.8426 5.52956 66.6129 5.60541 66.4044 5.49V5.49ZM65.82 11.2096C64.8567 11.9002 65.5205 13.5171 65.4861 14.6013C65.481 14.7571 65.5873 16.5803 65.6601 16.5777C66.3665 16.5518 67.0717 15.4536 70.0782 15.5722C70.2299 15.5781 70.3369 15.2021 70.0258 14.9948C68.3805 13.8986 69.6752 14.6816 68.6064 13.4012C68.3425 13.0852 67.2394 11.9265 67.2394 11.6514C67.2394 10.8027 66.6363 11.6267 66.018 11.1122C65.9396 11.0471 65.8659 11.1765 65.82 11.2096V11.2096Z" fill="#1C1B17"/>
<path fill-rule="evenodd" clip-rule="evenodd" d="M73.1677 5.42726C70.6728 4.68648 71.0429 12.5206 73.182 13.8174C74.5132 14.6245 71.4724 20.4516 78.8455 17.4101C80.4578 16.745 86.2157 17.5588 76.5076 16.7135C74.0448 16.4991 75.6641 15.498 73.8786 12.4815C73.3882 11.6531 83.2884 12.0276 77.3843 11.5642C76.5223 11.4966 76.5467 10.7746 73.8786 10.8546C72.7307 10.8889 72.1085 7.05502 74.3367 6.86107C74.4197 6.85373 83.7129 4.9738 78.7214 5.49647C75.7161 5.81106 75.547 5.19037 73.1677 5.42726Z" fill="#1C1B17"/>
<path fill-rule="evenodd" clip-rule="evenodd" d="M83.9276 18.2577C83.8789 16.8908 83.9689 16.3595 84.2575 15.0439C84.4434 14.1968 83.7157 11.7597 84.2227 12.6237C85.2583 14.3879 85.4031 15.8367 85.4031 15.8232C85.4031 15.4776 86.0588 12.8822 86.0588 14.4265C86.0588 15.6784 86.563 17.0038 86.5178 18.2712C86.5102 18.4851 86.6177 18.8099 86.7801 19C86.7801 17.656 86.8605 15.9784 86.7858 14.6885C86.695 13.1229 86.0662 9.22296 86.0588 9.24401C85.8187 9.27467 85.44 12.2987 85.5399 12.9555C85.8133 14.7535 84.8814 12.1773 84.8785 12.1648C84.4082 10.1581 84.443 11.1214 83.9276 9.88026C83.9276 11.3639 83.6655 12.7555 83.6655 14.4776C83.6655 15.9509 83.9276 17.0076 83.9276 18.2577V18.2577Z" fill="#1C1B17"/>
<path fill-rule="evenodd" clip-rule="evenodd" d="M88.5286 9.74788C88.2651 10.6825 88.1244 15.9086 88.4367 16.7324C88.8299 17.7699 89.0415 19.0594 90.2856 18.8273C91.5691 18.588 91.7006 12.4844 91.664 11.0486C91.6609 10.9273 92.0223 9.14116 91.4617 9.7103C91.4302 9.74209 90.797 13.6176 90.3823 14.4951C90.0402 15.2192 90.4862 16.6686 89.7423 16.6686C89.7423 14.252 89.0101 15.4145 89.0848 13.5505C89.0877 13.4806 88.6916 11.3005 88.7309 10.2625C88.7364 10.1164 88.5466 9.68361 88.5286 9.74788Z" fill="#1C1B17"/>
<path fill-rule="evenodd" clip-rule="evenodd" d="M97.0448 11.9971C97.9908 12.4574 97.1837 13.3357 96.5825 11.9701C96.5231 11.8352 95.5109 10.5976 94.9704 11.2174C94.805 11.4072 93.3045 12.7795 93.743 12.9134C93.8548 12.9476 97.2607 14.8193 97.2232 14.963C96.9346 15.077 95.6564 16.8463 95.4514 17.2646C94.2871 19.6416 94.9269 18.7247 93.3625 16.5751C93.3457 16.5521 92.3761 14.7383 92.6845 15.0875C93.0142 15.461 94.3401 16.1455 94.4956 16.5689C94.9358 17.7673 94.8259 15.9527 95.6599 15.5436C95.6638 15.5416 96.0338 15.0739 95.5935 14.791C94.7144 14.2262 93.8951 13.9513 93.2983 13.1249C93.0765 12.8179 93.2193 12.967 92.9082 12.8317C92.9825 12.6172 93.6281 11.5046 93.7729 11.3895C94.7657 10.6006 94.2676 10.3495 95.0128 9.56595C95.6078 9.7931 96.4736 11.4558 97.0448 11.9971V11.9971Z" fill="#1C1B17"/>
<path fill-rule="evenodd" clip-rule="evenodd" d="M98.587 10.1646C98.1871 10.7548 98.4138 13.3487 98.3843 14.3131C98.3422 15.6904 98.2293 17.0403 98.6051 18.3468C98.7318 18.7873 98.6753 16.9899 98.7627 16.5027C99.0765 14.7537 99.3762 15.1605 99.2551 13.1643C99.1945 12.1673 98.7107 11.6927 98.7503 10.3736C98.752 10.3145 98.5933 10.1552 98.587 10.1646Z" fill="#1C1B17"/>
<path fill-rule="evenodd" clip-rule="evenodd" d="M98.8772 7.29815C98.3481 7.0614 97.9907 8.01267 98.378 8.59255C98.3834 8.60046 98.4454 9.38078 98.859 8.77081C99.124 8.38008 98.3977 8.21198 98.8482 7.38107L98.8772 7.29815V7.29815Z" fill="#1C1B17"/>
</svg>
