<svg width="56" height="20" viewBox="0 0 56 20" fill="none" xmlns="http://www.w3.org/2000/svg">
<path fill-rule="evenodd" clip-rule="evenodd" d="M50.2536 13.4536C50.3289 14.1059 52.1039 15.3799 52.6606 16.2061C53.0907 16.8446 53.982 17.8819 54.42 18.3938C54.6949 17.6581 54.5765 17.1897 55.2309 15.9874C55.2458 15.96 55.4467 14.0817 55.6467 13.595C54.8529 10.9496 55.593 12.6026 54.8228 14.4484C54.5743 15.0438 54.1267 16.7572 53.8664 16.1571C53.6265 15.604 51.5069 13.8501 51.0957 13.6235C50.7816 13.4503 51.5496 12.1967 51.8108 11.1817C52.1177 9.98894 53.5083 7.75218 53.9746 6.67337C54.1859 6.80275 55.5823 13.4316 54.8246 8.59803C54.749 8.11611 53.894 3.91575 53.644 5.41066C53.6185 5.56305 53.5344 5.44367 53.6786 5.65264C53.5447 5.84181 51.8587 9.96873 51.4105 10.7781C51.2066 11.1463 50.3136 13.0166 50.2536 13.4536V13.4536Z" fill="white"/>
<path fill-rule="evenodd" clip-rule="evenodd" d="M26.4022 17.8617C26.3274 15.766 26.4653 14.9513 26.9078 12.9341C27.1928 11.6349 26.0771 7.89822 26.8547 9.22299C28.4426 11.9282 28.6645 14.1495 28.6645 14.1289C28.6645 13.5991 29.6699 9.61919 29.6699 11.9872C29.6699 13.9069 30.4431 15.9392 30.3737 17.8826C30.3621 18.2105 30.5269 18.7084 30.776 19C30.776 16.9393 30.8992 14.3668 30.7846 12.3891C30.6455 9.98839 29.6812 4.00833 29.6699 4.0406C29.3018 4.0877 28.7209 8.72439 28.8742 9.73168C29.2936 12.4885 27.8647 8.53855 27.8601 8.51919C27.139 5.44226 27.1922 6.91932 26.4022 5.01627C26.4022 7.29133 26 9.42495 26 12.0657C26 14.3245 26.4022 15.945 26.4022 17.8617Z" fill="white"/>
<path fill-rule="evenodd" clip-rule="evenodd" d="M33.4569 4.81311C33.053 6.24639 32.8373 14.2597 33.316 15.523C33.9189 17.1138 34.2435 19.0912 36.151 18.7354C38.1192 18.3684 38.3207 9.00929 38.2646 6.80779C38.2599 6.62163 38.8139 3.88293 37.9544 4.75557C37.9064 4.8044 36.9352 10.747 36.2994 12.0925C35.7749 13.2028 36.4588 15.4252 35.3179 15.4252C35.3179 11.7197 34.1952 13.5022 34.3099 10.6441C34.3142 10.5369 33.7068 7.19399 33.7671 5.60251C33.7756 5.37838 33.4845 4.7147 33.4569 4.81311V4.81311Z" fill="white"/>
<path fill-rule="evenodd" clip-rule="evenodd" d="M46.5154 8.26202C47.9661 8.96796 46.7284 10.3146 45.8066 8.22062C45.7155 8.01381 44.1634 6.11615 43.3346 7.06655C43.081 7.35736 40.7803 9.46182 41.4525 9.66724C41.6241 9.71961 46.8463 12.5896 46.7889 12.8099C46.3464 12.9847 44.3863 15.6975 44.0722 16.339C42.287 19.9837 43.2678 18.5779 40.8691 15.2819C40.8435 15.2466 39.3566 12.4653 39.8295 13.0007C40.3351 13.5733 42.3681 14.623 42.6065 15.2723C43.2816 17.1101 43.1131 14.3275 44.3918 13.7002C44.3979 13.6971 44.9651 12.9798 44.29 12.5461C42.942 11.68 41.6858 11.2585 40.7706 9.9915C40.4305 9.52076 40.6495 9.74919 40.1726 9.54163C40.2865 9.21307 41.2763 7.50705 41.4984 7.33056C43.0208 6.12066 42.2569 5.73564 43.3997 4.53433C44.312 4.88246 45.6395 7.43208 46.5154 8.26202V8.26202Z" fill="white"/>
<path fill-rule="evenodd" clip-rule="evenodd" d="M48.8801 5.45225C48.2668 6.35726 48.6145 10.3345 48.5694 11.8133C48.5048 13.9252 48.3317 15.9949 48.9079 17.9985C49.1022 18.6739 49.0156 15.9177 49.1496 15.1706C49.6306 12.4889 50.0903 13.1128 49.9047 10.052C49.8119 8.52296 49.0699 7.79529 49.1304 5.77264C49.1332 5.68209 48.89 5.43773 48.8801 5.45225V5.45225Z" fill="white"/>
<path fill-rule="evenodd" clip-rule="evenodd" d="M44.6046 1.05693C43.7932 0.693747 43.2452 2.15253 43.8392 3.04162C43.8474 3.05378 43.9426 4.25035 44.5768 3.31501C44.9831 2.71597 43.8692 2.45817 44.5601 1.18416L44.6046 1.05693V1.05693Z" fill="white"/>
<path fill-rule="evenodd" clip-rule="evenodd" d="M11.8712 0C11.5074 0.0375974 10.1837 0.449086 9.95404 0.706885C9.68799 1.00567 9.32209 1.15163 8.97364 1.60532C8.8045 1.82552 8.71628 1.84549 8.56259 2.19307C8.18288 3.05182 7.96841 3.57418 7.96841 4.55076C8.58873 4.55076 8.56685 4.4081 9.07298 4.34584C9.72229 4.26596 11.086 3.22269 11.3359 2.63616C11.5172 2.21069 11.7018 2.10034 11.7533 1.55392C11.7776 1.29673 11.9007 1.27936 11.9007 0.732594C11.9007 0.379804 11.9518 0.349404 11.8712 0V0Z" fill="white"/>
<path fill-rule="evenodd" clip-rule="evenodd" d="M15.4347 6.81895C15.4197 7.06537 14.6946 7.41686 14.4627 7.84989C14.2763 8.1979 13.8929 8.49259 13.8306 8.99855C13.8304 9.00029 13.6649 9.37384 13.6526 9.39624C13.3289 9.83247 13.5142 10.4771 13.5054 10.8025C13.4868 11.4831 13.8022 12.0591 13.8832 12.5185C14.0378 13.3944 15.4006 14.379 16.1269 14.757C16.1269 14.8226 16.1099 14.8818 16.0999 14.9632C15.9647 16.0621 13.8677 19.381 12.6949 19.6246C11.6918 19.8331 12.4192 19.8291 11.1784 19.8822C9.91843 19.9361 9.18159 18.3811 6.49507 19.6415C5.75866 19.987 5.65126 20 4.84565 20C4.08345 20 2.53327 18.4857 2.36135 18.029C2.10034 17.3359 1.15311 16.6149 1.31123 16.1119C1.2811 16.0847 1.04084 15.5682 1.0167 15.538C0.666862 15.0986 0.442753 13.8148 0.422521 13.79C-0.0948122 13.1551 -0.0509628 10.2652 0.103595 9.37679C0.241047 8.58707 0.737627 6.47528 1.62078 6.2444C1.60827 6.08619 2.29328 5.59742 2.29701 5.59638C2.65249 5.50434 3.07805 5.25218 3.44325 5.09068C4.07824 4.80961 4.56423 4.88949 5.26061 4.88949C5.47586 4.88949 6.66143 5.13314 6.79385 5.25262C6.95535 5.39823 7.58183 5.6398 7.82105 5.72898C8.39881 5.77795 8.85372 5.84428 9.32529 5.36472C9.41525 5.2732 11.1523 4.9191 11.4679 4.9191C12.537 4.9191 12.3491 5.00628 13.3568 5.25409C13.7247 5.34448 14.1776 5.68426 14.519 5.90333C14.7457 6.04869 15.2003 6.39095 15.3206 6.6102C15.3451 6.65483 15.4235 6.77605 15.4347 6.81895Z" fill="white"/>
</svg>
