<svg width="95" height="20" viewBox="0 0 95 20" fill="none" xmlns="http://www.w3.org/2000/svg">
<path fill-rule="evenodd" clip-rule="evenodd" d="M6.54655 16.082C6.6313 16.1482 6.52653 17.4637 6.58527 17.7924C6.63659 18.0794 6.60305 19.4519 6.60305 19.8624C6.58435 19.8624 6.47359 19.861 6.47247 19.8612C6.01794 19.9506 4.91804 19.8906 4.39197 19.8906C3.76764 19.8906 3.23212 19.806 2.66743 19.806C2.34693 19.806 0.0306781 19.8967 0.00141245 19.8765C0.00141245 19.8642 -0.00062108 19.7701 0.000191855 19.7636C0.0739657 19.1643 -0.00732879 16.1506 0.0296598 16.0679C1.07804 16.1393 3.48026 16.1216 4.50487 16.0384C4.90341 16.0061 6.09802 16.0332 6.50428 16.0831C6.50479 16.0832 6.54269 16.082 6.54655 16.082V16.082Z" fill="white"/>
<path fill-rule="evenodd" clip-rule="evenodd" d="M14.5023 16.086C14.5871 16.1521 14.4823 17.4677 14.541 17.7964C14.5924 18.0834 14.5587 19.4559 14.5587 19.8663C14.54 19.8663 14.4294 19.8649 14.4282 19.8651C13.9737 19.9546 12.8738 19.8946 12.3478 19.8946C11.7234 19.8946 11.1879 19.8099 10.6232 19.8099C10.3027 19.8099 7.98636 19.9007 7.95719 19.8805C7.95719 19.8682 7.95516 19.7742 7.95597 19.7677C8.02975 19.1682 7.94845 16.1547 7.98544 16.0719C9.03382 16.1434 11.436 16.1256 12.4606 16.0425C12.8592 16.0101 14.0538 16.0372 14.4601 16.0872C14.4605 16.0872 14.4985 16.086 14.5023 16.086V16.086Z" fill="white"/>
<path fill-rule="evenodd" clip-rule="evenodd" d="M22.4017 16.1424C22.4864 16.2086 22.3816 17.524 22.4403 17.8528C22.4917 18.1398 22.4581 19.5123 22.4581 19.9228C22.4394 19.9228 22.3288 19.9213 22.3275 19.9216C21.873 20.0109 20.7731 19.9509 20.2471 19.9509C19.6227 19.9509 19.0873 19.8663 18.5226 19.8663C18.2021 19.8663 15.8857 19.9571 15.8565 19.9368C15.8565 19.9246 15.8546 19.8305 15.8554 19.824C15.929 19.2246 15.8478 16.211 15.8847 16.1282C16.9331 16.1998 19.3354 16.182 20.3599 16.0989C20.7585 16.0665 21.9531 16.0936 22.3594 16.1436C22.3599 16.1437 22.3978 16.1424 22.4017 16.1424V16.1424Z" fill="white"/>
<path fill-rule="evenodd" clip-rule="evenodd" d="M30.301 16.1717C30.3858 16.2379 30.281 17.5534 30.3397 17.8821C30.391 18.1691 30.3575 19.5416 30.3575 19.9521C30.3388 19.9521 30.2281 19.9506 30.2268 19.9508C29.7724 20.0403 28.6725 19.9803 28.1464 19.9803C27.5221 19.9803 26.9866 19.8957 26.4219 19.8957C26.1014 19.8957 23.7851 19.9864 23.7559 19.9662C23.7559 19.9539 23.7538 19.8598 23.7546 19.8534C23.8284 19.254 23.7471 16.2404 23.7841 16.1576C24.8325 16.229 27.2347 16.2114 28.2593 16.1281C28.6579 16.0958 29.8525 16.1229 30.2587 16.1729C30.2593 16.1729 30.2972 16.1717 30.301 16.1717V16.1717Z" fill="white"/>
<path fill-rule="evenodd" clip-rule="evenodd" d="M14.728 10.5564C14.8128 10.6227 14.708 11.9381 14.7668 12.2669C14.8181 12.5539 14.7845 13.9263 14.7845 14.3369C14.7658 14.3369 14.6551 14.3354 14.6539 14.3356C14.1994 14.425 13.0995 14.365 12.5735 14.365C11.9491 14.365 11.4136 14.2805 10.8489 14.2805C10.5284 14.2805 8.21217 14.3711 8.1829 14.351C8.1829 14.3387 8.18087 14.2446 8.18168 14.2381C8.25545 13.6387 8.17416 10.6251 8.21115 10.5423C9.25953 10.6138 11.6618 10.596 12.6864 10.5129C13.0849 10.4806 14.2795 10.5076 14.6858 10.5576C14.6862 10.5577 14.7242 10.5564 14.728 10.5564V10.5564Z" fill="white"/>
<path fill-rule="evenodd" clip-rule="evenodd" d="M22.6274 10.6129C22.7121 10.679 22.6073 11.9946 22.6662 12.3233C22.7174 12.6103 22.6838 13.9828 22.6838 14.3932C22.6651 14.3932 22.5545 14.3918 22.5533 14.392C22.0987 14.4814 20.9988 14.4215 20.4728 14.4215C19.8484 14.4215 19.313 14.3368 18.7483 14.3368C18.4278 14.3368 16.1115 14.4276 16.0822 14.4074C16.0822 14.3951 16.0803 14.301 16.0811 14.2945C16.1547 13.6951 16.0735 10.6815 16.1104 10.5988C17.1588 10.6702 19.5611 10.6524 20.5856 10.5693C20.9842 10.537 22.1788 10.5641 22.5851 10.614C22.5856 10.6141 22.6235 10.6129 22.6274 10.6129V10.6129Z" fill="white"/>
<path fill-rule="evenodd" clip-rule="evenodd" d="M30.5267 10.6421C30.6115 10.7084 30.5067 12.0238 30.5654 12.3526C30.6167 12.6396 30.5832 14.0121 30.5832 14.4226C30.5645 14.4226 30.4538 14.4211 30.4526 14.4214C29.9981 14.5107 28.8982 14.4507 28.3721 14.4507C27.7478 14.4507 27.2123 14.3661 26.6476 14.3661C26.3271 14.3661 24.0108 14.4568 23.9816 14.4366C23.9816 14.4244 23.9795 14.3303 23.9804 14.3238C24.0541 13.7244 23.9728 10.7108 24.0098 10.628C25.0582 10.6996 27.4604 10.6818 28.485 10.5987C28.8836 10.5662 30.0782 10.5934 30.4844 10.6434C30.485 10.6435 30.5229 10.6421 30.5267 10.6421V10.6421Z" fill="white"/>
<path fill-rule="evenodd" clip-rule="evenodd" d="M14.6152 5.3654C14.6999 5.43165 14.5951 6.74708 14.6538 7.07592C14.7052 7.36288 14.6716 8.73532 14.6716 9.14585C14.6529 9.14585 14.5423 9.14443 14.541 9.14463C14.0865 9.23395 12.9866 9.174 12.4606 9.174C11.8362 9.174 11.3008 9.08946 10.7361 9.08946C10.4156 9.08946 8.09925 9.18009 8.06998 9.15997C8.06998 9.14768 8.06805 9.05358 8.06886 9.04707C8.14254 8.44764 8.06135 5.43409 8.09823 5.35128C9.14661 5.42281 11.5489 5.40503 12.5734 5.3219C12.972 5.28959 14.1666 5.31662 14.5729 5.36662C14.5734 5.36672 14.6113 5.3654 14.6152 5.3654V5.3654Z" fill="white"/>
<path fill-rule="evenodd" clip-rule="evenodd" d="M30.4139 5.45117C30.4986 5.51742 30.3938 6.83285 30.4526 7.16158C30.5039 7.44864 30.4703 8.82108 30.4703 9.23161C30.4516 9.23161 30.341 9.23009 30.3397 9.23039C29.8852 9.31971 28.7853 9.25977 28.2593 9.25977C27.6349 9.25977 27.0995 9.17512 26.5348 9.17512C26.2143 9.17512 23.8979 9.26586 23.8688 9.24564C23.8688 9.23344 23.8667 9.13935 23.8676 9.13285C23.9412 8.53341 23.86 5.51985 23.8969 5.43704C24.9453 5.50858 27.3476 5.4908 28.3721 5.40767C28.7707 5.37526 29.9653 5.40238 30.3715 5.45238C30.3721 5.45248 30.41 5.45117 30.4139 5.45117V5.45117Z" fill="white"/>
<path fill-rule="evenodd" clip-rule="evenodd" d="M30.3575 0.057536C30.4422 0.12379 30.3374 1.43932 30.3961 1.76805C30.4475 2.05502 30.4139 3.42756 30.4139 3.83799C30.3952 3.83799 30.2845 3.83657 30.2834 3.83677C29.8288 3.92619 28.7289 3.86623 28.2028 3.86623C27.5785 3.86623 27.0431 3.78159 26.4783 3.78159C26.1579 3.78159 23.8416 3.87223 23.8123 3.85211C23.8123 3.83982 23.8103 3.74572 23.8111 3.73921C23.8848 3.13988 23.8035 0.12623 23.8405 0.043514C24.8889 0.114951 27.2911 0.0971638 28.3157 0.0140412C28.7143 -0.018273 29.9089 0.00876107 30.3152 0.0587566C30.3157 0.0588582 30.3536 0.057536 30.3575 0.057536V0.057536Z" fill="white"/>
<path fill-rule="evenodd" clip-rule="evenodd" d="M40.6515 3.42902C43.5539 5.06543 42.8343 7.08682 45.2426 9.75704C47.3378 12.0803 43.857 14.179 42.2132 15.504C42.1789 15.5316 41.0389 18.0011 40.3339 18.4972C40.1383 18.6347 40.3276 18.5338 40.0161 18.7876C40.0161 18.2011 39.9547 15.8842 40.0071 15.504C40.617 11.0682 40.6515 7.90387 40.6515 3.42902ZM41.6774 6.87071C43.279 7.77366 42.8818 8.88914 44.2107 10.3626C45.367 11.6448 43.4462 12.8027 42.5391 13.534C42.5202 13.5493 41.891 14.9121 41.502 15.1857C41.3941 15.2616 41.4985 15.2059 41.3267 15.3461C41.3267 15.0224 41.2928 13.7438 41.3216 13.534C41.6582 11.0862 41.6774 9.33997 41.6774 6.87071V6.87071Z" fill="white"/>
<path fill-rule="evenodd" clip-rule="evenodd" d="M48.7269 5.05208C46.3284 4.33993 46.6842 11.8711 48.7407 13.1178C50.0205 13.8938 47.0973 19.4955 54.1851 16.5716C55.7353 15.9323 61.2705 16.7146 51.9376 15.9019C49.5702 15.6958 51.1269 14.7333 49.4103 11.8336C48.9389 11.0372 58.4564 11.3972 52.7805 10.9517C51.9517 10.8868 51.9752 10.1926 49.4103 10.2695C48.3068 10.3025 47.7088 6.61697 49.8508 6.4304C49.9305 6.42346 58.8645 4.61613 54.0658 5.11859C51.1767 5.42112 51.0142 4.82441 48.7269 5.05208V5.05208Z" fill="white"/>
<path fill-rule="evenodd" clip-rule="evenodd" d="M57.7945 5.41237C55.3959 4.70022 55.7518 12.2314 57.8083 13.4781C59.088 14.2541 56.1648 19.8557 63.2527 16.9319C64.8027 16.2925 70.3379 17.0749 61.0052 16.2622C58.6378 16.0561 60.1944 15.0936 58.4779 12.1939C58.0065 11.3976 67.5239 11.7575 61.8481 11.312C61.0193 11.247 61.0428 10.5529 58.4779 10.6298C57.3744 10.6628 56.7762 6.97727 58.9182 6.7907C58.9981 6.78376 67.932 4.97643 63.1334 5.47889C60.2443 5.78142 60.0818 5.1847 57.7945 5.41237Z" fill="white"/>
<path fill-rule="evenodd" clip-rule="evenodd" d="M66.7617 5.47605C68.5532 5.47605 69.8784 6.05363 72.6661 6.05363C78.6701 6.05363 74.0803 6.51602 71.1831 11.7241C71.1673 11.7524 65.1451 19.3499 69.3824 16.4208C70.4133 15.7083 82.4296 18.3797 75.5077 16.1238C75.345 16.0708 71.4005 15.8025 70.363 15.4109C70.5002 15.359 78.0802 5.86282 78.1133 5.70693C78.2256 5.18111 68.447 4.67364 66.7617 5.47605V5.47605Z" fill="white"/>
<path fill-rule="evenodd" clip-rule="evenodd" d="M80.2498 5.41237C77.8512 4.70022 78.2071 12.2314 80.2635 13.4781C81.5433 14.2541 78.6202 19.8557 85.708 16.9319C87.2581 16.2925 92.7933 17.0749 83.4604 16.2622C81.093 16.0561 82.6497 15.0936 80.9331 12.1939C80.4618 11.3976 89.9793 11.7575 84.3033 11.312C83.4746 11.247 83.4982 10.5529 80.9331 10.6298C79.8296 10.6628 79.2316 6.97727 81.3736 6.7907C81.4533 6.78376 90.3874 4.97643 85.5887 5.47889C82.6996 5.78142 82.5371 5.1847 80.2498 5.41237V5.41237Z" fill="white"/>
<path fill-rule="evenodd" clip-rule="evenodd" d="M88.6865 3.95923C91.8693 4.71362 91.0679 6.19647 93.1443 6.71318C93.7595 6.86624 96.3286 8.88056 93.1716 10.0331C89.0155 11.5503 90.3702 13.5585 89.5945 14.8691C89.1945 15.545 88.4519 18.2331 88.6865 19C88.6865 17.6869 88.5685 14.7095 88.6775 13.5618C89.062 9.51334 88.6097 7.46653 88.6865 3.95923V3.95923ZM89.7459 5.86582C89.7355 5.89137 88.9365 12.7455 91.0622 10.024C92.4543 8.24148 94.0747 10.4539 91.2983 7.37588C90.9284 6.96588 90.8062 6.23473 89.9395 5.95352L89.7459 5.86582ZM90.339 12.0124C89.9882 13.02 90.9043 13.0457 91.5748 14.1673C92.5324 15.7693 93.3648 17.4087 94.8886 18.5266C95.4021 18.9035 93.9875 16.9204 93.7561 16.2836C92.9256 13.9976 93.6706 14.1689 92.0133 12.0232C91.1854 10.9514 92.0034 12.6927 91.0854 11.1593C91.0444 11.0908 90.4027 11.8293 90.339 12.0124V12.0124Z" fill="white"/>
</svg>
