<svg width="86" height="20" viewBox="0 0 86 20" fill="none" xmlns="http://www.w3.org/2000/svg">
<path fill-rule="evenodd" clip-rule="evenodd" d="M7.15661 0.155265C9.17319 -0.173659 13.0861 0.112233 15.2536 0.177081C16.0277 0.200259 18.2023 0.785592 18.593 1.50266C18.7154 1.72746 19.1794 1.92669 19.3179 2.59186C19.3692 2.83796 19.632 2.94823 19.6603 3.63897C19.6604 3.64127 19.7378 3.8232 19.7023 3.92094C19.7023 4.08481 19.7041 4.93064 19.723 5.02787C20.0083 6.49431 19.7494 9.76174 19.7828 10.9886C19.8546 13.6251 19.8705 14.1214 19.6954 16.2646C19.3894 20.0093 15.855 20.0922 11.8499 19.9703C9.78127 19.9074 6.94127 19.9106 5.42481 19.9704C4.5466 20.0049 3.05655 19.5444 3.02852 19.5406C1.56625 19.3387 1.71342 18.7838 0.55221 17.8157C0.0706672 17.4143 -0.066529 6.83312 0.0280582 6.33743C0.203002 5.48205 -0.000658645 4.5096 0.22422 3.52333C0.426432 2.63635 0.55732 2.5242 0.811683 1.75932C1.09638 0.902928 2.0414 0.80766 2.56359 0.497568C3.89233 -0.291425 6.42616 0.457348 7.15661 0.155265V0.155265ZM8.04377 3.3051C9.41511 3.08142 12.0761 3.27579 13.5501 3.31993C14.0765 3.33569 15.5554 3.73373 15.821 4.2214C15.9043 4.37428 16.2198 4.50977 16.314 4.96208C16.3489 5.12944 16.5276 5.20443 16.5468 5.67421C16.5469 5.67575 16.5996 5.79948 16.5754 5.86594C16.5754 5.97732 16.5766 6.55259 16.5895 6.61872C16.7835 7.61589 16.6075 9.83801 16.6302 10.6722C16.679 12.4652 16.6898 12.8028 16.5707 14.2603C16.3627 16.8069 13.9591 16.8632 11.2354 16.7804C9.82866 16.7375 7.89729 16.7397 6.86603 16.7804C6.26877 16.8039 5.25549 16.4907 5.2364 16.4881C4.24196 16.3508 4.34208 15.9734 3.55241 15.315C3.22493 15.0421 3.13162 7.84631 3.19588 7.50929C3.31492 6.92753 3.17645 6.26628 3.32941 5.59556C3.46685 4.99233 3.5559 4.91607 3.7288 4.39592C3.92249 3.81357 4.56517 3.74881 4.92026 3.53782C5.82378 3.00132 7.54697 3.51055 8.04377 3.3051ZM9.80121 6.14936C10.5688 6.14902 10.8798 6.15516 11.5913 6.46065C12.114 6.6851 12.0423 6.72797 12.4993 7.06481C12.714 7.22306 13.5977 8.21707 13.5744 8.50092C13.5737 8.5091 13.9032 9.28037 13.8903 9.71325C13.8855 9.87064 13.8996 10.2393 13.9429 10.3788C13.9471 10.4058 13.8767 10.7611 13.8712 10.8205C13.8247 11.3165 13.665 11.4288 13.5964 11.702C13.4924 12.1159 13.1817 12.3798 12.9571 12.6616C12.7357 12.9393 12.2542 13.2515 12.236 13.2744C12.0124 13.5563 11.6213 13.6858 11.328 13.8475C10.7057 14.1905 9.63181 14.0414 8.96033 13.9047C8.39741 13.79 7.9537 13.4798 7.46713 13.1691C7.42895 13.1464 7.439 13.1609 7.41898 13.134C7.01208 12.5852 6.93139 12.9579 6.47285 12.081C6.38628 11.9155 6.18253 11.435 6.10678 11.3044C5.87056 10.897 5.98586 10.4569 5.97538 10.1286C5.9568 9.54334 6.14623 9.26903 6.15245 9.07858C6.16745 8.61263 6.53727 8.24817 6.58363 8.11038C6.69492 7.7795 7.91663 6.52209 8.27589 6.51638C8.6498 6.51041 9.10843 6.14936 9.80121 6.14936ZM9.87134 8.01742C10.2763 8.01725 10.4403 8.02048 10.8158 8.18171C11.0915 8.30007 11.0537 8.32265 11.2948 8.50041C11.408 8.58392 11.8743 9.10824 11.8619 9.25804C11.8616 9.26239 12.0354 9.66928 12.0285 9.89766C12.0261 9.98066 12.0335 10.1751 12.0562 10.2487C12.0585 10.263 12.0214 10.4504 12.0185 10.4817C11.9939 10.7434 11.9097 10.8026 11.8735 10.9468C11.8186 11.1651 11.6548 11.3044 11.5363 11.4531C11.4194 11.5995 11.1655 11.7642 11.1559 11.7763C11.0379 11.925 10.8315 11.9933 10.6768 12.0786C10.3485 12.2596 9.78204 12.181 9.42772 12.1089C9.13075 12.0484 8.89675 11.8846 8.64001 11.7207C8.61989 11.7088 8.62518 11.7165 8.61461 11.7022C8.39987 11.4128 8.35735 11.6093 8.11543 11.1468C8.06975 11.0595 7.9623 10.8059 7.92234 10.737C7.79767 10.5221 7.8586 10.2899 7.85306 10.1167C7.84318 9.80801 7.94322 9.66323 7.94645 9.56276C7.95438 9.31692 8.14943 9.12477 8.17389 9.05199C8.2326 8.87748 8.87716 8.21409 9.06667 8.21111C9.26394 8.20796 9.50586 8.01742 9.87134 8.01742V8.01742ZM13.7469 5.26331C13.9176 5.26323 13.9867 5.26459 14.145 5.33251C14.2612 5.38244 14.2453 5.39199 14.3469 5.46689C14.3947 5.50208 14.5912 5.72313 14.586 5.78627C14.5859 5.78806 14.6592 5.95959 14.6563 6.05589C14.6552 6.09082 14.6583 6.17288 14.6679 6.2039C14.6689 6.20986 14.6533 6.28886 14.652 6.30207C14.6417 6.41242 14.6062 6.43738 14.5909 6.49806C14.5678 6.59017 14.4987 6.64889 14.4487 6.71152C14.3995 6.7733 14.2924 6.84275 14.2884 6.84777C14.2386 6.91049 14.1516 6.93929 14.0864 6.97525C13.948 7.05152 13.7092 7.01837 13.5599 6.98795C13.4347 6.96247 13.336 6.89354 13.2278 6.82443C13.2193 6.81931 13.2215 6.82255 13.2171 6.81659C13.1267 6.69456 13.1087 6.77747 13.0067 6.58242C12.9874 6.54561 12.9422 6.43875 12.9253 6.40969C12.8727 6.31911 12.8984 6.22128 12.8961 6.14826C12.8919 6.01805 12.9341 5.95712 12.9355 5.91468C12.9388 5.81106 13.021 5.73003 13.0313 5.69935C13.0561 5.62581 13.3278 5.34614 13.4076 5.34486C13.4909 5.34358 13.5928 5.26331 13.7469 5.26331V5.26331Z" fill="white"/>
<path fill-rule="evenodd" clip-rule="evenodd" d="M30.3142 5.36261C29.7133 6.24935 30.054 10.1464 30.0097 11.5953C29.9465 13.6647 29.7769 15.6928 30.3414 17.6559C30.5317 18.3177 30.4469 15.617 30.5783 14.885C31.0496 12.2573 31.5001 12.8687 31.3181 9.86955C31.2271 8.37132 30.5001 7.65834 30.5595 5.67646C30.5622 5.58776 30.3238 5.34834 30.3142 5.36261V5.36261Z" fill="white"/>
<path fill-rule="evenodd" clip-rule="evenodd" d="M30.7503 1.05579C29.9552 0.699899 29.4183 2.12928 30.0003 3.00046C30.0083 3.01237 30.1016 4.18485 30.7231 3.2684C31.1211 2.68136 30.0297 2.42875 30.7066 1.18043L30.7503 1.05579V1.05579Z" fill="white"/>
<path fill-rule="evenodd" clip-rule="evenodd" d="M39.8284 4C39.8284 5.5963 40.3143 7.35174 39.6509 8.81247C38.6699 10.9718 39.6717 13.5764 38.6316 15.7535C37.7963 17.502 39.4869 17.4219 36.8321 15.444C35.2138 14.2385 34.6307 3.88524 34.6307 10.7401C34.6307 11.3894 33.6582 15.9706 33.2534 16.277L33 16.2162C33 14.4033 33.0277 12.5199 33.5358 10.7876C33.8934 9.56865 33.9058 5.31964 34.0192 4.92546C34.5279 6.45987 36.4616 8.99419 36.6602 10.2085C36.8458 11.3419 37.9939 11.9809 37.9939 15.0131C37.9939 11.9407 38.4289 10.0651 39.2926 7.20735C39.303 7.17277 39.8284 4.03822 39.8284 4Z" fill="white"/>
<path fill-rule="evenodd" clip-rule="evenodd" d="M47.3739 7.73877C48.738 8.44685 47.5742 9.79739 46.7074 7.69724C46.6218 7.48981 45.1623 5.58653 44.3831 6.53978C44.1446 6.83141 41.9813 8.94211 42.6134 9.14805C42.7747 9.20059 47.6851 12.0791 47.631 12.3001C47.2151 12.4753 45.372 15.1962 45.0767 15.8395C43.398 19.4951 44.3202 18.0851 42.0648 14.7793C42.0407 14.7439 40.6427 11.9544 41.0872 12.4914C41.5628 13.0657 43.4743 14.1185 43.6985 14.7697C44.3331 16.6128 44.1748 13.822 45.3771 13.1929C45.3829 13.1899 45.9162 12.4705 45.2814 12.0354C44.0139 11.1667 42.8328 10.7441 41.9722 9.47329C41.6524 9.0012 41.8583 9.2303 41.41 9.02219C41.517 8.69259 42.4477 6.98146 42.6565 6.80444C44.088 5.591 43.3697 5.20495 44.4442 4C45.3021 4.34922 46.5502 6.90633 47.3739 7.73877V7.73877Z" fill="white"/>
<path fill-rule="evenodd" clip-rule="evenodd" d="M48.6016 5.34389C49.8381 4.69214 55.613 5.14335 54.9467 5.27253C53.5505 5.54319 53.9798 5.97147 51.7335 5.87019C51.044 5.83902 51.6185 9.19952 51.6185 9.63639C51.6185 10.42 50.6991 13.9936 50.6991 16C50.5082 15.9547 50.1967 11.6385 50.512 10.5404C50.8797 9.25959 50.0047 7.86428 50.4545 6.53357C50.6614 5.92156 49.8403 6.51968 48.9029 5.75547C48.7157 5.60292 47.1713 6.09783 48.6016 5.34389V5.34389Z" fill="white"/>
<path fill-rule="evenodd" clip-rule="evenodd" d="M57.7112 5C58.2288 5.1623 57.9452 6.54424 58.5122 7.76578C59.3925 9.66228 60.0553 17.6261 59.9963 16.9606C59.9141 16.0323 59.1573 16.3801 58.9488 13.6578C58.8554 12.4394 58.6349 11.9544 57.3978 12.2233C56.5293 12.4121 57.2473 14.1344 56.0475 15.1375C55.87 15.2858 55.3996 16.6638 55 16.8292C55 14.8897 56.0328 13.3762 56.1197 12.6233C56.5137 9.20774 57.5306 8.37048 57.7112 5V5ZM57.742 7.99013C56.976 9.41062 57.4028 9.50559 56.9489 10.7503C56.881 10.9365 56.8833 11.2492 57 11.2817C57.1699 11.329 58.6319 11.6688 58.5968 11.476C58.4616 10.7338 58.0221 9.37364 57.9912 8.6145C57.9909 8.60865 57.816 7.85278 57.742 7.99013V7.99013Z" fill="white"/>
<path fill-rule="evenodd" clip-rule="evenodd" d="M61 13.5437C61.0645 14.1321 62.587 15.2813 63.0644 16.0267C63.4334 16.6026 64.1977 17.5384 64.5735 18C64.8092 17.3364 64.7077 16.9138 65.2689 15.8294C65.2818 15.8046 65.8284 14.1326 66 13.6937C65.986 13.6272 64.6604 11.1033 64.6401 11.0941C64.5202 12.8304 65.8027 13.4815 64.9189 14.4411C64.5441 14.8481 64.3219 16.5237 64.0986 15.9823C63.8928 15.4835 62.0749 13.9014 61.7222 13.697C61.4528 13.5408 62.1115 12.41 62.3355 11.4943C62.5988 10.4185 63.7916 8.40091 64.1913 7.42767C64.3726 7.54434 65.5704 13.5239 64.9205 9.16382C64.8557 8.72902 64.1223 4.94028 63.9078 6.28868C63.8859 6.42602 63.8139 6.31844 63.9375 6.50698C63.8226 6.67766 62.3766 10.4003 61.9922 11.1304C61.8174 11.4624 61.0515 13.1495 61 13.5437V13.5437Z" fill="white"/>
<path fill-rule="evenodd" clip-rule="evenodd" d="M77.2535 6C77.8745 6.16241 77.5342 7.54423 78.2147 8.76587C79.271 10.6623 80.0664 18.626 79.9956 17.9606C79.8969 17.0323 78.9888 17.3801 78.7386 14.6578C78.6265 13.4395 78.3618 12.9545 76.8773 13.2233C75.8352 13.4121 76.6968 15.1344 75.257 16.1375C75.044 16.2858 74.4797 17.6638 74 17.8292C74 15.8897 75.2395 14.3763 75.3436 13.6233C75.8164 10.2078 77.0367 9.37057 77.2535 6V6ZM77.2904 8.99021C76.3712 10.4107 76.8834 10.5057 76.3387 11.7504C76.2572 11.9366 76.26 12.2493 76.4 12.2818C76.6039 12.3291 78.3583 12.6689 78.3161 12.4761C78.1539 11.7337 77.6265 10.3737 77.5894 9.61458C77.5891 9.60863 77.3793 8.85286 77.2904 8.99021V8.99021Z" fill="white"/>
<path fill-rule="evenodd" clip-rule="evenodd" d="M81.416 17.8587C81.3387 15.7572 81.4813 14.9404 81.9391 12.9177C82.2339 11.615 81.0798 7.8681 81.8841 9.19647C83.5268 11.909 83.7564 14.1364 83.7564 14.1156C83.7564 13.5844 84.7965 9.59385 84.7965 11.9682C84.7965 13.8931 85.5962 15.9309 85.5246 17.8797C85.5124 18.2085 85.6829 18.7076 85.9407 19C85.9407 16.9337 86.068 14.3543 85.9496 12.3711C85.8057 9.96406 84.8082 3.96767 84.7965 4.00013C84.4156 4.04726 83.8148 8.69663 83.9733 9.70654C84.4072 12.471 82.929 8.51017 82.9243 8.49076C82.1782 5.40549 82.2333 6.88655 81.416 4.97834C81.416 7.25956 81 9.39898 81 12.0469C81 14.3119 81.416 15.9368 81.416 17.8587V17.8587Z" fill="white"/>
<path fill-rule="evenodd" clip-rule="evenodd" d="M68.0521 5C71.0506 5.65214 70.2956 6.93368 72.2517 7.38028C72.8313 7.51257 75.2517 9.25368 72.2775 10.2498C68.3619 11.561 69.6382 13.2969 68.9074 14.4296C68.5306 15.0138 67.831 17.3371 68.0521 18C68.0521 16.8651 67.9408 14.2917 68.0435 13.2996C68.4057 9.80061 67.9796 8.03142 68.0521 5V5ZM69.05 6.64789C69.0402 6.67009 68.2875 12.5942 70.2901 10.2419C71.6018 8.70132 73.1283 10.6135 70.5126 7.95306C70.1641 7.59869 70.049 6.96675 69.2325 6.7238L69.05 6.64789ZM69.6088 11.9605C69.2783 12.8314 70.1414 12.8536 70.773 13.8231C71.6753 15.2076 72.4594 16.6246 73.895 17.5908C74.3788 17.9165 73.0461 16.2025 72.8281 15.6521C72.0457 13.6764 72.7476 13.8243 71.1862 11.9699C70.4063 11.0435 71.1769 12.5486 70.312 11.2231C70.2734 11.1639 69.6688 11.8023 69.6088 11.9605V11.9605Z" fill="white"/>
</svg>
