<svg width="126" height="20" viewBox="0 0 126 20" fill="none" xmlns="http://www.w3.org/2000/svg">
<g clip-path="url(#clip0_12_246)">
<path fill-rule="evenodd" clip-rule="evenodd" d="M0.548454 11.9116C0.199593 11.926 0.243779 13.9815 0.0349515 14.2747C-0.132545 14.5098 0.356626 16.7572 0.352003 16.8073C0.311896 17.2388 0.723973 17.2862 0.797117 16.3917C0.814519 16.1777 1.00595 15.559 0.995208 15.2289C0.97631 14.6517 1.23489 14.728 0.946123 13.8428C0.86958 13.6082 0.735393 11.9038 0.548454 11.9116V11.9116Z" fill="white"/>
<path fill-rule="evenodd" clip-rule="evenodd" d="M2.2002 10.3035C1.78608 10.327 1.83855 13.6708 1.59057 14.1479C1.3918 14.5305 1.97247 18.1864 1.9669 18.268C1.91931 18.9701 2.40862 19.0472 2.49536 17.5919C2.51616 17.2437 2.7432 16.2371 2.73042 15.7001C2.70813 14.7613 3.01498 14.8853 2.67237 13.4453C2.58142 13.0636 2.42208 10.291 2.2002 10.3035Z" fill="white"/>
<path fill-rule="evenodd" clip-rule="evenodd" d="M3.9869 9.53521C3.57292 9.5628 3.62526 13.4934 3.37728 14.0542C3.17852 14.5038 3.75918 18.8014 3.7536 18.8973C3.70602 19.7224 4.19532 19.8131 4.28206 18.1026C4.30286 17.6933 4.53004 16.51 4.51726 15.8787C4.49496 14.7752 4.80168 14.9209 4.45908 13.2283C4.36826 12.7796 4.20878 9.52052 3.9869 9.53521V9.53521Z" fill="white"/>
<path fill-rule="evenodd" clip-rule="evenodd" d="M5.77376 9.32082C5.35965 9.34937 5.41198 13.4286 5.16414 14.0105C4.96523 14.477 5.5459 18.9369 5.54046 19.0364C5.49274 19.893 5.98204 19.9869 6.06878 18.2119C6.08958 17.787 6.31677 16.5591 6.30399 15.9039C6.28169 14.7587 6.58854 14.9101 6.2458 13.1534C6.15498 12.6877 5.99551 9.30559 5.77376 9.32082V9.32082Z" fill="white"/>
<path fill-rule="evenodd" clip-rule="evenodd" d="M7.66856 9.6245C7.20849 9.65224 7.26668 13.6112 6.99124 14.176C6.77031 14.6289 7.41542 18.9574 7.4093 19.0539C7.35641 19.8852 7.9001 19.9764 7.99649 18.2536C8.0196 17.8412 8.27194 16.6494 8.2578 16.0137C8.23292 14.9021 8.57389 15.049 8.19308 13.3442C8.0922 12.8923 7.91505 9.60968 7.66856 9.6245V9.6245Z" fill="white"/>
<path fill-rule="evenodd" clip-rule="evenodd" d="M9.49133 6.72556C10.0137 6.78593 9.72245 8.48441 9.86194 8.892C9.90028 9.00376 10.0399 11.9524 10.0274 12.269C10.0262 12.3011 10.022 12.2826 10.0632 12.3022C10.0632 12.3835 10.179 13.3968 10.1929 13.4415C10.3393 13.9191 10.16 14.2593 10.151 14.6289C10.1339 15.3333 9.89525 19.3127 9.4689 19.6973C8.98775 20.1313 9.06755 18.3818 8.9819 18.1408C8.90522 17.9254 8.86294 16.4776 8.95525 16.4488C8.95525 16.3984 8.84649 15.4293 8.845 15.4255C8.7278 15.1155 8.6707 14.0455 8.7588 13.732C8.7588 13.6303 8.75118 13.3017 8.76328 13.2494C8.9921 12.2657 8.79795 11.1798 8.90631 10.2303C9.00787 9.33874 9.06252 8.9188 9.06252 8.00219C9.06252 7.65183 8.93935 6.58132 9.49133 6.72556V6.72556Z" fill="white"/>
<path fill-rule="evenodd" clip-rule="evenodd" d="M11.8856 12.019C11.8838 12.0429 12.0107 13.6315 12.0107 14.0053C12.0107 15.8964 11.6534 17.2701 11.6534 19.1838C11.4781 19.2242 11.6164 19.5264 11.3317 19.5412C10.8397 19.7748 10.9148 18.569 10.8937 18.5048C10.6031 17.6205 10.8421 16.2703 10.662 15.6165C10.4997 15.0278 10.5224 12.3047 10.7063 12.019C10.7063 11.8564 10.6906 11.4263 10.7048 11.3072C10.815 10.3856 10.732 9.58619 10.8268 8.77005C10.9608 7.61525 10.9207 6.5749 10.9207 5.41398C10.9207 5.10387 11.2049 4.96071 11.4032 4.99701C12.075 5.3959 11.5382 9.11632 11.7917 9.85687C11.9298 10.2604 11.6708 11.2204 11.881 11.7866C11.8929 11.819 11.8856 11.9734 11.8856 12.019V12.019Z" fill="white"/>
<path fill-rule="evenodd" clip-rule="evenodd" d="M13.8154 12.3763C13.8136 12.4003 13.9404 13.9888 13.9404 14.3627C13.9404 16.2537 13.583 17.6275 13.583 19.5412C13.4079 19.5816 13.5462 19.8838 13.2615 19.8985C12.7695 20.1321 12.8445 18.9263 12.8234 18.8623C12.5329 17.9779 12.7719 16.6276 12.5916 15.9738C12.4293 15.3851 12.452 12.6621 12.6361 12.3763C12.6361 12.2138 12.6203 11.7838 12.6344 11.6647C12.7447 10.743 12.5189 9.94348 12.6135 9.12748C12.7476 7.97254 12.7432 6.93235 12.7432 5.77143C12.7432 5.61168 12.6756 4.80941 12.7758 4.45511C12.8702 4.1212 13.1295 4.22902 13.2257 4.24655C13.8975 4.64545 13.4678 9.47361 13.7214 10.2143C13.8594 10.6178 13.6005 11.5777 13.8107 12.1441C13.8227 12.1763 13.8154 12.3309 13.8154 12.3763V12.3763Z" fill="white"/>
<path fill-rule="evenodd" clip-rule="evenodd" d="M15.6735 12.4478C15.6718 12.4718 15.7987 14.0603 15.7987 14.4342C15.7987 16.3252 15.4413 17.6989 15.4413 19.6127C15.2661 19.6531 15.4044 19.9553 15.1197 19.97C14.6276 20.2036 14.7027 18.9978 14.6817 18.9336C14.3911 18.0494 14.6301 16.6991 14.4499 16.0453C14.2875 15.4566 14.3102 12.7335 14.4943 12.4478C14.4943 12.2852 14.4786 11.8551 14.4927 11.736C14.603 10.8144 14.3771 10.015 14.4718 9.19883C14.6058 8.04403 14.6015 7.00384 14.6015 5.84292C14.6015 5.68317 14.5161 4.54141 14.6161 4.18697C14.7105 3.8532 15.0235 3.76444 15.1196 3.78197C15.9234 4.18087 15.5284 9.5451 15.5795 10.2858C15.6089 10.7112 15.4588 11.6492 15.669 12.2154C15.6809 12.2478 15.6735 12.4022 15.6735 12.4478V12.4478Z" fill="white"/>
<path fill-rule="evenodd" clip-rule="evenodd" d="M17.5317 12.4888C17.5301 12.5124 17.6569 14.0621 17.6569 14.4269C17.6569 16.2718 17.2995 17.612 17.2995 19.4792C17.1244 19.5185 17.2625 19.8134 16.9778 19.8278C16.4858 20.0557 16.561 18.8793 16.5399 18.8167C16.2494 17.954 16.4884 16.6366 16.3081 15.9988C16.1458 15.4244 16.1685 12.7677 16.3524 12.4888C16.3524 12.3303 16.3368 11.9108 16.3509 11.7945C16.461 10.8953 16.2354 10.1153 16.33 9.31918C16.464 8.19252 16.4597 7.17747 16.4597 6.04497C16.4597 5.88903 16.3743 4.77515 16.4744 4.42941C16.5687 4.10366 16.8817 4.01706 16.9778 4.03419C17.7814 4.42343 17.3866 9.65689 17.4377 10.3795C17.4671 10.7946 17.3169 11.7097 17.5272 12.2622C17.5392 12.2937 17.5317 12.4445 17.5317 12.4888V12.4888Z" fill="white"/>
<path fill-rule="evenodd" clip-rule="evenodd" d="M19.5169 11.8276C19.515 11.8531 19.6581 13.5357 19.6581 13.9316C19.6581 15.9348 19.2551 17.3898 19.2551 19.4169C19.0575 19.4597 19.2135 19.7797 18.8924 19.7954C18.3375 20.0428 18.4222 18.7656 18.3984 18.6976C18.0709 17.7609 18.3404 16.3307 18.1371 15.6383C17.9541 15.0146 17.9797 12.1303 18.1872 11.8276C18.1872 11.6554 18.1693 11.2 18.1855 11.0738C18.3096 10.0975 18.2163 9.25081 18.323 8.38641C18.4742 7.16308 18.429 6.06129 18.429 4.83158C18.429 4.50297 18.7495 4.35152 18.973 4.38985C19.7305 4.8124 19.1252 8.75308 19.411 9.53754C19.5667 9.96498 19.2748 10.9818 19.5118 11.5816C19.5252 11.6157 19.5169 11.7794 19.5169 11.8276V11.8276Z" fill="white"/>
<path fill-rule="evenodd" clip-rule="evenodd" d="M21.3197 11.6902C21.3179 11.7162 21.4448 13.434 21.4448 13.8382C21.4448 15.8832 21.0875 17.3688 21.0875 19.4382C20.9122 19.4819 21.0505 19.8088 20.7658 19.8247C20.2738 20.0772 20.3488 18.7733 20.3278 18.704C20.0372 17.7477 20.2762 16.2875 20.0961 15.5804C19.9338 14.9439 19.9565 11.9992 20.1404 11.6902C20.1404 11.5144 20.1246 11.0493 20.1389 10.9206C20.249 9.92389 20.0232 9.05948 20.118 8.17699C20.252 6.92811 20.2477 5.80322 20.2477 4.54781C20.2477 4.37502 20.1622 3.14039 20.2624 2.75714C20.3567 2.39618 20.6697 2.30021 20.7658 2.31924C21.5694 2.75063 21.1746 8.55127 21.2257 9.35218C21.2551 9.81225 21.1049 10.8266 21.3151 11.439C21.327 11.4739 21.3197 11.641 21.3197 11.6902V11.6902Z" fill="white"/>
<path fill-rule="evenodd" clip-rule="evenodd" d="M23.3208 11.1528C23.3192 11.1802 23.4459 12.9961 23.4459 13.4234C23.4459 15.5851 23.0886 17.1553 23.0886 19.3429C22.9135 19.3889 23.0516 19.7345 22.7669 19.7513C22.2749 20.0183 22.3501 18.6399 22.329 18.5667C22.0385 17.5558 22.2775 16.0123 22.0972 15.265C21.9349 14.5922 21.9576 11.4795 22.1415 11.1528C22.1415 10.9671 22.1257 10.4755 22.14 10.3394C22.2501 9.28585 22.0245 8.37195 22.1191 7.43916C22.2531 6.11904 22.2488 4.92997 22.2488 3.60305C22.2488 3.42046 22.1633 2.11528 22.2635 1.71027C22.3578 1.32865 22.6708 1.22724 22.7669 1.24723C23.5705 1.70336 23.1757 7.83491 23.2268 8.68151C23.2562 9.16782 23.106 10.24 23.3162 10.8872C23.3283 10.9242 23.3208 11.1008 23.3208 11.1528V11.1528Z" fill="white"/>
<path fill-rule="evenodd" clip-rule="evenodd" d="M23.839 1.44139C23.839 1.44125 23.6968 6.15508 23.9284 7.78749C24.1206 9.14215 23.9811 10.5698 23.8181 11.8939C23.741 12.5216 24.0736 14.9484 23.8212 15.1636C23.8212 15.373 23.9473 15.9171 23.8881 16.1985C23.7425 16.8915 23.7327 17.7203 23.8033 18.4263C23.8664 19.0566 24.0846 19.1974 24.1429 19.4147C24.2729 19.8995 25.3526 19.7378 25.7228 19.7378C27.2077 19.7378 29.4014 19.8484 30.7896 19.7021C31.2188 19.7021 33.9927 19.7216 34.1262 19.7495C35.1585 19.9653 38.4247 19.8629 39.7295 19.8629C40.0129 19.8629 40.6415 19.7891 40.7448 19.7914C41.2021 19.8016 41.4756 19.5793 41.6383 19.5755C42.0031 19.5667 42.2945 19.3455 42.6342 19.2375C43.2097 19.0547 43.6311 18.3961 44.0356 18.1312C44.4716 17.8456 44.5158 17.5804 44.7069 17.3956C45.1141 17.0016 45.1424 16.3332 45.3694 16.0927C45.4108 16.023 45.4086 15.9853 45.4276 15.9335C45.603 15.4574 45.6018 15.3168 45.6018 14.8109C45.6018 14.212 45.4767 13.7389 45.4767 13.3187C45.4767 12.7021 45.2482 12.4619 45.2251 12.1992C45.1831 11.7208 44.2151 10.3681 44.0115 10.3394C43.9803 10.3286 43.9652 10.3119 43.9533 10.2828C43.8295 9.97665 43.5249 9.73968 43.2566 9.57259C42.931 9.37016 42.9788 9.45254 42.7342 9.34038C41.6065 8.82293 41.6331 8.67773 40.3221 8.67773C39.9652 8.67773 38.0726 8.68601 37.9141 9.08722C37.8552 9.10258 37.7203 8.57903 37.7222 8.53485C37.7448 8.00503 36.9274 5.49476 36.6143 5.21143C36.5355 5.00995 36.5203 4.8461 36.3938 4.69329C36.2643 4.53653 35.8496 3.90122 35.7792 3.83868C35.6616 3.73413 34.697 2.63277 34.6786 2.62828C34.6386 2.46378 34.2432 2.29696 34.2217 2.24081C34.134 2.01132 33.443 1.66993 33.2001 1.44139C32.731 0.999939 32.3486 1.04685 32.0224 0.863443C31.0423 0.312689 30.2077 0.416285 29.597 0.114601C29.2957 -0.0342701 27.2016 -0.0259704 26.8704 0.0701499C26.4162 0.202026 24.976 0.398742 24.7635 0.540815C24.3452 0.820883 23.839 0.767591 23.839 1.44139V1.44139Z" fill="white"/>
<path fill-rule="evenodd" clip-rule="evenodd" d="M62.8855 7.91019C64.3591 8.62729 63.1018 9.99509 62.1655 7.86812C62.073 7.65814 60.4964 5.73048 59.6546 6.69586C59.397 6.99134 57.0601 9.12898 57.7428 9.33751C57.9171 9.3907 63.2217 12.306 63.1634 12.5297C62.7139 12.7071 60.723 15.4628 60.4038 16.1143C58.5904 19.8166 59.5868 18.3885 57.1502 15.0405C57.1243 15.0048 55.614 12.1797 56.0942 12.7235C56.6079 13.3051 58.6729 14.3713 58.9151 15.0309C59.6008 16.8976 59.4297 14.0712 60.7284 13.434C60.7347 13.4309 61.3108 12.7024 60.625 12.2618C59.2559 11.382 57.9799 10.9539 57.0502 9.66686C56.7047 9.18872 56.9272 9.42079 56.4429 9.21004C56.5585 8.87614 57.5639 7.14325 57.7895 6.96403C59.3359 5.73504 58.5599 5.34405 59.7207 4.12372C60.6474 4.47738 61.9957 7.06717 62.8855 7.91019V7.91019Z" fill="white"/>
<path fill-rule="evenodd" clip-rule="evenodd" d="M68.88 4.35823C67.0614 4.18745 66.5175 9.68972 65.0633 11.7497C64.3632 12.7415 66.6358 14.0957 66.9009 16.8427C66.966 17.5172 67.5052 18.2687 67.4424 18.9999C67.4648 19.0195 69.082 15.1591 70.5671 13.9951C72.9168 12.1534 68.9127 7.90086 69.1462 4.94386C69.1749 4.58042 69.0319 4.37244 68.88 4.35823V4.35823ZM68.4008 6.00872C67.5333 7.52386 65.9966 11.5188 67.1139 13.3196C68.6667 15.8222 66.6637 15.8745 69.4383 12.7872C70.1771 11.9652 68.8393 9.45696 68.9333 7.0736C68.9384 6.94434 68.3767 6.0508 68.4008 6.00872Z" fill="white"/>
<path fill-rule="evenodd" clip-rule="evenodd" d="M73.0978 4.97999C72.7158 6.35056 72.5119 14.0132 72.9646 15.2212C73.5348 16.7425 73.8417 18.6333 75.6455 18.293C77.5069 17.942 77.6974 8.99253 77.6444 6.88732C77.6399 6.70932 78.1639 4.09055 77.3511 4.9249C77.3056 4.97165 76.3872 10.6542 75.7859 11.9409C75.2899 13.0025 75.9366 15.1277 74.8578 15.1277C74.8578 11.5843 73.7961 13.2888 73.9044 10.5559C73.9085 10.4533 73.3341 7.25663 73.3911 5.73482C73.3991 5.52052 73.124 4.88583 73.0978 4.97999V4.97999Z" fill="white"/>
<path fill-rule="evenodd" clip-rule="evenodd" d="M84.7112 3.79428C84.7112 5.40381 85.1561 7.17358 84.5486 8.64631C83.6507 10.8235 84.5678 13.4494 83.6156 15.6444C82.8508 17.4074 84.3986 17.3265 81.9681 15.3325C80.4864 14.1169 79.9526 3.67858 79.9526 10.5898C79.9526 11.2445 79.0622 15.8634 78.6916 16.1723L78.4596 16.1109C78.4596 14.2832 78.4848 12.3843 78.9502 10.6378C79.2776 9.40882 79.2889 5.12478 79.3927 4.72747C79.8584 6.27449 81.6287 8.82963 81.8107 10.054C81.9805 11.1966 83.0317 11.8408 83.0317 14.898C83.0317 11.8004 83.43 9.90927 84.2207 7.02811C84.2303 6.99325 84.7112 3.83292 84.7112 3.79428Z" fill="white"/>
<path fill-rule="evenodd" clip-rule="evenodd" d="M86.4841 3.8877C89.0409 5.32922 88.407 7.10986 90.5284 9.46213C92.3741 11.5087 89.3077 13.3574 87.8598 14.5247C87.8297 14.549 86.8253 16.7245 86.2043 17.1613C86.0319 17.2826 86.1987 17.1936 85.9243 17.4173C85.9243 16.9005 85.8703 14.8597 85.9162 14.5247C86.4537 10.6172 86.4841 7.82962 86.4841 3.8877ZM87.3877 6.91944C88.7986 7.71493 88.4487 8.69763 89.6195 9.99558C90.638 11.125 88.9459 12.1451 88.1468 12.7892C88.1303 12.8027 87.5761 14.0031 87.2333 14.2443C87.1382 14.3112 87.2302 14.2621 87.0788 14.3856C87.0788 14.1003 87.0489 12.9741 87.0744 12.7892C87.371 10.633 87.3877 9.09472 87.3877 6.91944V6.91944Z" fill="white"/>
<path fill-rule="evenodd" clip-rule="evenodd" d="M90.9428 13.5567C91.0367 14.2193 93.2545 15.5133 93.9501 16.3526C94.4876 17.0012 95.601 18.0548 96.1485 18.5747C96.4919 17.8274 96.344 17.3516 97.1616 16.1305C97.1802 16.1026 97.4312 14.1946 97.6811 13.7004C96.6893 11.0132 97.6141 12.6922 96.6517 14.5672C96.3413 15.172 95.7819 16.9123 95.4567 16.3027C95.1569 15.741 92.5086 13.9596 91.9949 13.7293C91.6022 13.5534 92.562 12.28 92.8882 11.2491C93.2717 10.0375 95.0093 7.76551 95.5918 6.66966C95.8559 6.80113 97.6006 13.5344 96.6539 8.62475C96.5595 8.13517 95.4912 3.86867 95.1787 5.38714C95.1469 5.54182 95.0418 5.42055 95.222 5.63286C95.0547 5.82507 92.9482 10.017 92.3881 10.8391C92.1334 11.2131 91.0177 13.1129 90.9428 13.5567V13.5567Z" fill="white"/>
<path fill-rule="evenodd" clip-rule="evenodd" d="M99.3606 5.19397C99.7445 4.8463 99.8194 6.50657 100.628 7.34004C100.638 7.35037 100.387 10.5688 100.387 10.9444C100.387 11.9398 100.257 13.0202 100.612 13.9262C100.765 14.3146 99.4693 16.7118 100.196 16.5388C102.126 16.0798 102.367 16.7381 104.073 16.6709C105.063 16.6318 104.844 16.362 105.282 16.7215C105.432 16.845 107.319 16.7299 107.478 16.4841C107.405 16.5095 106.812 17.2871 106.553 17.3319C106.011 17.426 104.495 16.968 101.795 17.5186C99.6108 17.9637 98.5026 18.4706 99.1048 16.4602C100.176 12.8833 99.967 8.83154 99.3606 5.19397V5.19397Z" fill="white"/>
<path fill-rule="evenodd" clip-rule="evenodd" d="M110.309 4.17158C108.49 4.0008 107.946 9.50307 106.492 11.5632C105.792 12.5549 108.065 13.909 108.33 16.6562C108.395 17.3304 108.934 18.082 108.871 18.8132C108.893 18.8329 110.511 14.9725 111.996 13.8084C114.346 11.9667 110.341 7.71421 110.575 4.75721C110.604 4.39378 110.46 4.18591 110.309 4.17158V4.17158ZM109.83 5.82209C108.962 7.33724 107.425 11.3321 108.543 13.133C110.095 15.6357 108.092 15.6879 110.867 12.6006C111.606 11.7785 110.268 9.27034 110.362 6.88697C110.367 6.75772 109.805 5.86429 109.83 5.82209Z" fill="white"/>
<path fill-rule="evenodd" clip-rule="evenodd" d="M114.526 4.79345C114.144 6.16402 113.94 13.8267 114.393 15.0346C114.963 16.5558 115.27 18.4466 117.074 18.1064C118.936 17.7555 119.126 8.806 119.073 6.70079C119.069 6.52268 119.593 3.90392 118.78 4.73839C118.734 4.78502 117.816 10.4676 117.215 11.7542C116.718 12.8159 117.365 14.9411 116.286 14.9411C116.286 11.3977 115.225 13.1022 115.333 10.3692C115.337 10.2666 114.763 7.07001 114.82 5.5482C114.828 5.33389 114.553 4.69918 114.526 4.79345V4.79345Z" fill="white"/>
<path fill-rule="evenodd" clip-rule="evenodd" d="M121.381 4.63409C123.938 6.07562 123.304 7.85637 125.425 10.2085C127.271 12.2551 124.205 14.1038 122.757 15.2712C122.727 15.2955 121.722 17.4709 121.101 17.9077C120.929 18.029 121.096 17.94 120.821 18.1637C120.821 17.647 120.767 15.6061 120.813 15.2712C121.351 11.3636 121.381 8.57602 121.381 4.63409V4.63409ZM122.285 7.66593C123.696 8.46142 123.346 9.44403 124.517 10.7421C125.535 11.8714 123.843 12.8916 123.044 13.5358C123.027 13.5492 122.473 14.7496 122.13 14.9907C122.035 15.0575 122.127 15.0085 121.976 15.132C121.976 14.8468 121.946 13.7205 121.971 13.5358C122.268 11.3795 122.285 9.84121 122.285 7.66593Z" fill="white"/>
</g>
<defs>
<clipPath id="clip0_12_246">
<rect width="126" height="20" fill="white"/>
</clipPath>
</defs>
</svg>
