<svg width="77" height="20" viewBox="0 0 77 20" fill="none" xmlns="http://www.w3.org/2000/svg">
<path fill-rule="evenodd" clip-rule="evenodd" d="M9.72367 2.37416e-05C11.665 -0.000790278 12.4514 0.0147552 14.2509 0.787341C15.5728 1.35496 15.3914 1.4633 16.5473 2.31534C17.0902 2.71551 19.3252 5.22929 19.2661 5.94717C19.2644 5.96801 20.0978 7.9184 20.065 9.01334C20.0531 9.41123 20.0885 10.3434 20.1979 10.6962C20.2087 10.7645 20.0306 11.6632 20.0166 11.8133C19.8992 13.0678 19.4952 13.3517 19.3217 14.0426C19.0588 15.0893 18.2732 15.757 17.7049 16.4697C17.1451 17.1718 15.9274 17.9614 15.8814 18.0192C15.3159 18.7322 14.3268 19.0598 13.585 19.4687C12.0112 20.3361 9.29533 19.9591 7.59712 19.6133C6.17349 19.3233 5.05152 18.5387 3.82081 17.753C3.72426 17.6957 3.74958 17.7324 3.69911 17.6642C2.67002 16.2764 2.46595 17.2191 1.30622 15.0013C1.08733 14.5827 0.572216 13.3674 0.380515 13.037C-0.216976 12.0069 0.0747686 10.8939 0.0483129 10.0634C0.00109981 8.58354 0.480392 7.88983 0.49594 7.40809C0.534036 6.22964 1.46918 5.308 1.58648 4.95944C1.86797 4.12271 4.95766 0.942738 5.86619 0.928249C6.81192 0.913108 7.97173 2.37416e-05 9.72367 2.37416e-05V2.37416e-05ZM3.27183 5.84126C4.01267 5.73332 4.50246 5.48407 5.29833 5.43018C5.73676 5.40055 6.58953 5.14585 7.17302 5.14585C8.16726 5.14585 10.9225 5.0213 11.652 5.30353C11.7578 5.34447 13.1357 5.53161 13.3962 5.68351C13.412 5.69279 14.2859 5.85046 14.5189 5.96793C15.0023 6.21164 16.4168 6.4609 16.7631 6.85716C16.8307 6.93466 18.4519 7.37073 17.895 8.36424C17.6201 8.85469 17.2941 9.27472 16.6345 8.97646C16.5422 8.93479 16.2536 8.53795 15.736 8.51451C15.3867 8.49863 14.6022 8.13151 13.9483 8.03823C13.2909 7.94445 13.0811 7.59775 12.3096 7.58367C11.8264 7.57488 11.1275 7.27475 10.2952 7.29738C9.8973 7.30829 8.9637 7.16706 8.3286 7.16706C7.28307 7.16706 6.37178 7.31391 5.36915 7.52035C4.75033 7.64774 3.61934 7.98018 3.07288 7.65946C2.63543 7.40264 2.33522 6.23761 2.89714 6.03313C2.99693 5.99682 3.19963 5.90907 3.27183 5.84126V5.84126ZM3.91043 9.39747C4.5452 9.31705 4.96491 9.10728 5.64681 9.07553C6.02248 9.05803 6.75315 8.85062 7.2532 8.86209C8.10507 8.88163 10.466 8.8262 11.0911 9.08896C11.1817 9.12706 12.3624 9.31875 12.5857 9.45763C12.5992 9.46601 13.348 9.62206 13.5476 9.73C13.9619 9.95402 15.1739 10.2012 15.4706 10.5566C15.5286 10.6262 16.9176 11.0418 16.4405 11.9051C16.205 12.3314 15.9256 12.6946 15.3604 12.4192C15.2814 12.3807 15.034 12.0258 14.5905 11.995C14.2913 11.9742 13.7168 11.4618 13.1565 11.3668C12.5932 11.2713 12.3481 10.9839 11.6871 10.9563C11.2731 10.9391 10.6308 10.6503 9.91756 10.654C9.57665 10.6557 8.80928 10.5565 8.26511 10.544C7.3692 10.5234 6.58831 10.6131 5.72919 10.775C5.19902 10.875 4.20812 11.2866 3.73989 10.9936C3.36504 10.759 3.10781 9.7278 3.5893 9.55897C3.67485 9.52893 3.84848 9.45567 3.91043 9.39747ZM4.46111 12.7426C5.00944 12.6624 5.36109 12.5294 5.95012 12.4978C6.27467 12.4803 6.86231 12.3389 7.29423 12.3503C8.0301 12.3698 9.96079 12.2711 10.5333 12.4351C10.617 12.4591 11.6315 12.5772 11.8243 12.7156C11.836 12.724 12.4758 12.87 12.6553 12.9652C13.0349 13.1668 14.1252 13.3805 14.3816 13.7348C14.4316 13.804 15.5337 14.0336 15.0999 14.9591C14.8999 15.3856 14.5899 15.4416 14.1016 15.1672C14.0334 15.1287 13.8491 14.9892 13.4964 14.8123C13.2704 14.6989 12.8344 14.519 12.3826 14.3384C11.9255 14.1557 11.5051 14.0464 10.9395 13.9538C10.5862 13.8959 10.1409 13.8174 9.5305 13.7339C9.22524 13.6922 8.55148 13.7347 8.08138 13.7222C7.30758 13.7017 6.61127 13.7747 5.86921 13.9361C5.41124 14.0358 4.59876 14.2667 4.22684 14.1268C3.85312 13.9862 3.77872 13.0392 4.1946 12.8709C4.26843 12.841 4.40763 12.8006 4.46111 12.7426V12.7426Z" fill="white"/>
<path fill-rule="evenodd" clip-rule="evenodd" d="M36.2754 8.12227C37.7173 8.82393 36.4871 10.1623 35.5709 8.08114C35.4804 7.87561 33.9377 5.98942 33.114 6.93404C32.8619 7.22312 30.5751 9.31484 31.2434 9.51884C31.4139 9.57096 36.6044 12.4234 36.5473 12.6424C36.1075 12.8161 34.1594 15.5125 33.8471 16.15C32.0727 19.7727 33.0476 18.3753 30.6635 15.0993C30.638 15.0643 29.1603 12.2999 29.6302 12.8321C30.1328 13.4012 32.1533 14.4445 32.3904 15.0898C33.0613 16.9164 32.8938 14.1508 34.1647 13.5272C34.1708 13.5243 34.7346 12.8113 34.0635 12.3802C32.7238 11.5194 31.4753 11.1005 30.5656 9.84122C30.2275 9.37337 30.4452 9.60033 29.9713 9.39415C30.0844 9.06742 31.0682 7.37185 31.289 7.19636C32.8021 5.99388 32.0429 5.61134 33.1787 4.41724C34.0854 4.76333 35.4047 7.29733 36.2754 8.12227V8.12227Z" fill="white"/>
<path fill-rule="evenodd" clip-rule="evenodd" d="M38.5039 5.00842C41.2473 5.65873 40.5565 6.93682 42.3463 7.38226C42.8766 7.51413 45.0911 9.25049 42.3698 10.2439C38.7874 11.5516 39.9551 13.2828 39.2865 14.4124C38.9417 14.9949 38.3017 17.3121 38.5039 17.9731C38.5039 16.8413 38.4021 14.2749 38.496 13.2855C38.8274 9.79592 38.4377 8.03159 38.5039 5.00842ZM39.4169 6.65177C39.408 6.67385 38.7193 12.5819 40.5516 10.236C41.7516 8.69963 43.1483 10.6066 40.7551 7.95347C40.4362 7.60008 40.331 6.96979 39.5838 6.72749L39.4169 6.65177V6.65177Z" fill="white"/>
<path fill-rule="evenodd" clip-rule="evenodd" d="M46.4013 4.87131C44.8421 4.72487 44.3758 9.44262 43.1289 11.2089C42.5286 12.0593 44.4773 13.2203 44.7045 15.5757C44.7603 16.1538 45.2226 16.7983 45.1688 17.4252C45.188 17.4421 46.5745 14.1321 47.848 13.1341C49.8626 11.5549 46.4294 7.90874 46.6297 5.37344C46.6543 5.06183 46.5316 4.8835 46.4013 4.87131V4.87131ZM45.9905 6.2865C45.2466 7.5856 43.929 11.0108 44.8871 12.5549C46.2184 14.7007 44.5011 14.7455 46.8801 12.0984C47.5136 11.3935 46.3665 9.24297 46.447 7.19946C46.4514 7.0887 45.9699 6.32263 45.9905 6.2865V6.2865Z" fill="white"/>
<path fill-rule="evenodd" clip-rule="evenodd" d="M48.341 5.53281C50.1101 4.7181 58.3716 5.28202 57.4183 5.44359C55.421 5.78186 56.0352 6.31716 52.8215 6.19052C51.8351 6.15167 52.6571 10.3516 52.6571 10.8977C52.6571 11.877 51.3417 16.3435 51.3417 18.8511C51.0684 18.7946 50.623 13.3999 51.074 12.0275C51.6 10.4267 50.3483 8.68284 50.9917 7.01969C51.2876 6.25471 50.113 7.00218 48.772 6.04722C48.5042 5.8565 46.2947 6.47514 48.341 5.53281V5.53281Z" fill="white"/>
<path fill-rule="evenodd" clip-rule="evenodd" d="M58.5295 6.42523C57.9199 7.3247 58.2654 11.2777 58.2206 12.7475C58.1565 14.8466 57.9844 16.9037 58.5571 18.8951C58.7501 19.5663 58.6641 16.8269 58.7973 16.0843C59.2754 13.419 59.7323 14.0391 59.5478 10.9969C59.4555 9.47723 58.718 8.75392 58.7783 6.74359C58.781 6.65372 58.5392 6.41087 58.5295 6.42523V6.42523Z" fill="white"/>
<path fill-rule="evenodd" clip-rule="evenodd" d="M58.9719 2.05656C58.1653 1.69567 57.6207 3.14557 58.211 4.02914C58.2192 4.04133 58.3139 5.23053 58.9441 4.30093C59.3479 3.70557 58.2408 3.44923 58.9276 2.18299L58.9719 2.05656V2.05656Z" fill="white"/>
<path fill-rule="evenodd" clip-rule="evenodd" d="M61.9229 5.46469C62.9935 4.41671 70.2785 5.52126 70.2991 5.54814C69.414 6.79936 63.8401 5.37743 63.8401 6.76639C63.8401 9.659 61.4526 8.84277 67.2183 8.84277C66.6913 10.3652 62.7586 8.19028 62.9272 12.1297C62.9282 12.1557 62.3818 18.6015 62.3793 18.6121C62.3793 18.4595 62.2104 16.9736 62.1811 16.9008C61.3384 14.8046 63.0671 5.42889 61.9229 5.46469V5.46469Z" fill="white"/>
<path fill-rule="evenodd" clip-rule="evenodd" d="M69.5889 5.16269C70.2854 5.98262 72.7278 9.17531 72.7278 10.088C72.7278 12.0307 72.5263 12.9334 73.1592 14.7852C73.2101 14.9339 73.1341 19.6098 73.978 16.9997C74.206 16.2948 74.1108 12.7991 73.8949 12.0815C72.9596 12.0053 74.7747 9.83889 74.8281 9.2346C74.9056 8.35613 76.3992 7.46831 76.4501 5.77155C76.4542 5.63816 77.8092 4.94498 76.2006 5.1207C74.7858 5.2753 74.7068 9.18597 73.6375 9.21001C73.6131 9.21056 71.7558 6.77808 71.7348 6.69669C71.5714 6.06564 70.1452 5.25855 69.5889 5.16269V5.16269Z" fill="white"/>
</svg>
